/* XPM */
static char *_996c6501d6642f88fae0eae66a943c60y1v9tIhkQuCsq89[] = {
/* columns rows colors chars-per-pixel */
"64 64 225 2 ",
"   c #1D1D17",
".  c #273015",
"X  c #2F2928",
"o  c #2D2638",
"O  c #342939",
"+  c #6A3517",
"@  c #773A1A",
"#  c #53342E",
"$  c #49383C",
"%  c #683D2A",
"&  c #6B3F2C",
"*  c #334616",
"=  c #59681B",
"-  c #56433B",
";  c #794729",
":  c #694A37",
">  c #75533A",
",  c #372F41",
"<  c #3C3445",
"1  c #3F3847",
"2  c #433B46",
"3  c #484449",
"4  c #4E4E4E",
"5  c #594B43",
"6  c #544B48",
"7  c #4F504F",
"8  c #56514D",
"9  c #545351",
"0  c #5A5652",
"q  c #5C5A53",
"w  c #6E5845",
"e  c #615D54",
"r  c #685F54",
"t  c #7B6047",
"y  c #656156",
"u  c #6A6559",
"i  c #6C6759",
"p  c #726B5B",
"a  c #77715F",
"s  c #7B7562",
"d  c #813E16",
"f  c #933C25",
"g  c #9E4F0E",
"h  c #9E530F",
"j  c #8A4316",
"k  c #924A16",
"l  c #985811",
"z  c #A3530F",
"x  c #A7510D",
"c  c #AB530E",
"v  c #A45717",
"b  c #AC5610",
"n  c #AD5912",
"m  c #B35D12",
"M  c #B85E12",
"N  c #8F6B17",
"B  c #936817",
"V  c #8B781C",
"C  c #BA6313",
"Z  c #B76819",
"A  c #BE711B",
"S  c #944E2B",
"D  c #895328",
"F  c #945928",
"G  c #885933",
"H  c #A25334",
"J  c #946A28",
"K  c #A96A25",
"L  c #B56D2A",
"P  c #A8762C",
"I  c #B67525",
"U  c #B87532",
"Y  c #C36D15",
"T  c #C8771B",
"R  c #D07A1C",
"E  c #C57E2A",
"W  c #98654A",
"Q  c #8A6D51",
"!  c #AC6956",
"~  c #947A73",
"^  c #5A8222",
"/  c #709429",
"(  c #7D9928",
")  c #6FA429",
"_  c #72A62A",
"`  c #7DA42B",
"'  c #75AA2D",
"]  c #79AD2F",
"[  c #7CB02F",
"{  c #7BAF30",
"}  c #74A839",
"|  c #7DB131",
" . c #6C9E4F",
".. c #6C9E59",
"X. c #72A546",
"o. c #6FA157",
"O. c #70A250",
"+. c #6A9B69",
"@. c #689877",
"#. c #85821F",
"$. c #858923",
"%. c #968C2A",
"&. c #859728",
"*. c #B7852E",
"=. c #81A52D",
"-. c #89AC32",
";. c #96A932",
":. c #83B234",
">. c #8AB537",
",. c #8DB739",
"<. c #99B63B",
"1. c #95BB3C",
"2. c #9ABD3F",
"3. c #A8A435",
"4. c #B5A237",
"5. c #D2861E",
"6. c #D5851D",
"7. c #E1911E",
"8. c #C6882A",
"9. c #D78A23",
"0. c #D89529",
"q. c #C58736",
"w. c #CA9339",
"e. c #D79933",
"r. c #E08B21",
"t. c #E59927",
"y. c #D9A439",
"u. c #E9A52A",
"i. c #EDAB2D",
"p. c #F1AD2C",
"a. c #F1B42F",
"s. c #E7AA34",
"d. c #F1AE31",
"f. c #EBB43A",
"g. c #F2B334",
"h. c #F4BB33",
"j. c #F5BD39",
"k. c #9EC03F",
"l. c #F7C439",
"z. c #F6C23C",
"x. c #F8C53D",
"c. c #B39156",
"v. c #9CBF40",
"b. c #90B54C",
"n. c #89A85F",
"m. c #BCA15E",
"M. c #A99965",
"N. c #8AA763",
"B. c #8DAA63",
"V. c #86A669",
"C. c #94AA66",
"Z. c #8EB266",
"A. c #D9AF48",
"S. c #C0A057",
"D. c #E8B945",
"F. c #E2B64E",
"G. c #C8997F",
"H. c #9FC041",
"J. c #A1C243",
"K. c #EDC548",
"L. c #F5C845",
"P. c #FACD44",
"I. c #FCD146",
"U. c #FBD44A",
"Y. c #FEDA4D",
"T. c #F6D956",
"R. c #FEDE51",
"E. c #FEE354",
"W. c #FDE558",
"Q. c #FEEB5B",
"!. c #EFD765",
"~. c #FDED64",
"^. c #F9E46A",
"/. c #FCF265",
"(. c #FBF36A",
"). c #FAE672",
"_. c #FFF37B",
"`. c #689688",
"'. c #689597",
"]. c #6995A5",
"[. c #7995A9",
"{. c #6D98B8",
"}. c #7398BA",
"|. c #6E98C0",
" X c #729CC4",
".X c #749ECA",
"XX c #79A2CB",
"oX c #7FA7D5",
"OX c #8D9091",
"+X c #98A981",
"@X c #8E9AB1",
"#X c #D0A996",
"$X c #FEF382",
"%X c #90A6C4",
"&X c #85ACD6",
"*X c #8BB3DC",
"=X c #92B7DC",
"-X c #8DB4E1",
";X c #94BBE2",
":X c #97BDE4",
">X c #9CC3E5",
",X c #9DC4E8",
"<X c #A1C6E7",
"1X c #A3C9E7",
"2X c #A6CBE8",
"3X c #AACDEA",
"4X c #ADD1EB",
"5X c #B2D5ED",
"6X c #B6DAEE",
"7X c #B9DCEF",
"8X c #BDDDF1",
"9X c #BDE0EF",
"0X c #BDE2F1",
"qX c #C3E4F3",
"wX c #C9E6F6",
"eX c #C5E9F3",
"rX c #CCEBF6",
"tX c #CEECF8",
"yX c #D0EEF4",
"uX c #D2EEFA",
"iX c #CEF2F6",
"pX c #D7F5F7",
"aX c #D4F3FA",
"sX c #D7F9FA",
"dX c #D9FAFB",
/* pixels */
"] ] ' ] ] { | ] { :.{ ] ' ] { { { ] ] >.H.J.J.v.:.| | | { ] ) . * _ ] ] ' ] ] ] ] ] ] { | | ] ' ' _ ' ' _ ' ' ' _ ' _ _ _ _ _ N.",
"' ' _ ' ' ' ' ' :.2.,.:.] ] | | { ] ] >.2.H.J.2.| ] ] { { ] =   . / ] ' ' ' ] ] ] { | | { { ' ' _ _ _ _ _ ' ' _ _ _ _ ' ' _ _ N.",
"' ' ] ] ' ' _ :.2.H.v.1.:.] ] { ] ] ' :.v.H.v.2.>.| ] { { _ * X X = ] ] ' ' ' ] { { | | ] ' ' ' _ ) _ _ _ ' _ _ _ _ _ ' ' ' ' N.",
"] ] { ] ' ' ' >.v.v.2.1.:.] ] { { ] ] :.2.J.J.2.,.{ ] ] ] / . < 3 * _ { ] ] ] ' ' ] { { ] ' ' _ _ _ _ ' ' ' ' ' ' ' _ ' ' ' _ N.",
"{ ] ' ] ] ] ] :.1.2.2.2.>.] ' ' ] ] { | 1.H.H.2.>.] ] ] ] =   3 0 X ^ [ ] { ] ] ' ' { { ] ] ] ' _ _ ' ] ] ] ] ] ] ' ' ' ' ' ' N.",
"] ' ' | | ] | ,.2.2.v.v.1.| ] ' ' { { :.2.J.J.H.1.>.{ ' ) . o 3 9 - * ] | | | ] ] ' ' ] ] ] ] ] ] ' ] { { ] ] ] { | ] ' ' ' ' N.",
"' _ ' ] { ] { :.2.v.v.2.:.' ' ' ' ] ] { 1.H.J.J.2.2.:.' ^   O $ 2 $ . ) | | | | | ] ' ' ' ] { { { | | | { { ] ] { { ' _ ] ] ' N.",
"' ' ' ] ] ' ] :.1.v.H.2.:.' ' ' ] | { { ,.H.J.H.v.2.-.( = + d j j d + = &.] | | | { ] ] { { | { | | { ] ] { { ] { ] _ _ ' ] ] B.",
"] ] ] | | { { :.2.H.J.J.1.] ' ' ] ] ] ] { ,.1.2.<.%.B z m Y R 5.5.R Y m h N $.{ | ] { | | { { { | { ] ] { { | ] ] ] ' _ ' ' ] B.",
"' ' ] | | | | | 1.H.H.v.:.' ] ] ' ' ] ] ] ] { &.B c Y 0.i.h.l.l.j.g.p.u.6.C z V ` ] { | | { { { { { ] ] { { | | ] ] ' ' ' ' ' B.",
"' ' ] { { ] ] ] >.H.H.1.{ ' ' ' ' ' ] { ] ] $.l C 7.p.h.x.P.I.I.I.I.P.L.j.i.6.m l &.| | | | | | | | | | ] ] ] { ] ] ] ] ] ] ' N.",
"' ] { { ] ] ] ] { >.,.:.] ' ' ' ] { ] ' ' #.z Y 7.0.9.8.I I K K K K I *.8.e.u.0.C l $.| | | | | | | | | { ] { { ] ] { { | | { B.",
"] { | | | { | | ] ' ' ] ] ] ' _ ] ] ] ] $.g c n k ; & % - 5 5 5 5 5 5 : : > D K Z x l &.| | | | | :.| | | { { | { { | { ] { { B.",
"{ { | | { ] { | ] ' ] ] ] ] ' _ _ ] { &.l @ # $ 2 1 2 3 3 4 4 4 4 4 9 9 0 q e r w ; j B ` { | { | :.:.:.| { | { ] ] ] ] ] ] { C.",
"| | | | | | { { { ] ] { | { ] ' ] ] ` B @ O O < 1 2 2 3 3 4 4 4 4 9 9 9 q q e y i e - j V ] | | | ,.1.2.2.:.{ { ] ] ] ' ' ' ] B.",
"{ | | | | ] { { | | { { { ] ] ] | | $.j # o , 1 1 2 3 3 4 4 4 4 4 9 9 0 q q e i p p 0 % l &.] ] :.1.v.J.J.,.:.| ] ] { ] ] ' ' B.",
"] | ] ] ' ' ' ] ] { { { { | ] { | =.B + o O < 1 1 2 3 3 4 4 4 4 4 7 9 q q e y i p s u 3 d N ] { ,.2.H.J.J.v.1.| ' ' ] ' ' ' ' B.",
"' ] ] { ] ' ] ' ] ] ] ] { | | ] ] $.j X o , < 1 2 2 3 - : : : : : : : : w r r i p s p 8 % l ( { ,.2.J.J.H.J.1.{ ' ] ] ' ' ' ' B.",
"' ' ] | | ] ] ] ] ' ] ] | | | | { N + o O < $ # ; F K I 8.8.0.0.e.e.8.*.I K F G t p a q $ j V { :.2.J.J.J.J.2.:.' ] ' ' ' ' ' B.",
"' ' ' { | ] { | ] ' ] ] { ] ] ] =.l # O # D K 8.s.K.P.U.Y.Y.Y.Y.Y.R.E.W.W.T.K.A.w.P G w 2 % B ] ] ,.H.J.J.J.v.:.' ' ' ' ' ' ] B.",
"_ ' ' ] | { ] | | ] ] ' ' ' ] ] $.k + k T u.z.U.Y.Y.Y.Y.Y.Y.Y.Y.Y.R.E.W.Q.Q.~.~.~.^.F.*.D @ l =.] >.J.J.J.k.2.:.' ' ' ] ' ' ' B.",
"' ] | { { { { | { } X. ...o.O.} V x T u.h.l.P.U.Y.Y.Y.Y.Y.U.U.I.I.U.R.W.Q.~.~.~.~._._.^.F.A g $.X.O.N.Z.Z.b.b.] ' ' ' ' ] ' ' B.",
"] | | | { ] } o.`.].{. XXX.X}.].Q C u.h.h.l.I.U.L.f.y.8.8.I I K L I I 8.w.A.K.T.~._.$X).T.s.n s {. X.XXX.X}.].@. .} ' ' ' ' ] B.",
"| | | | } ..'..X&X;X>X<X1X<X;X&XW Y i.h.h.s.0.I F D ; : : 5 5 5 5 5 5 : > G F K q.A.!.).^.f.C ~ -X:X<X<X<X>X-XoX|.`.O.' ' ] ] B.",
"| | ] } `. X*X,X3X5X6X6X5X4X,X*XW Y u.9.Z D % $ 6 4 4 4 4 4 4 4 4 4 9 0 q y y i t G K q.F.f.C ~ ;X1X4X6X6X6X5X3X>X&X{.@.} ] ] B.",
"] ] X.'.oX,X5X8XqXwXwXwX8X6X2X*XW m v @ $ 2 1 2 3 4 4 4 4 4 4 4 4 4 9 0 e y i i p a Q Q F Z m ~ ;X3X6X9XwXwXwXqX6X4X:X.X@.} ' B.",
"| } '.&X2X6XqXwXtXuXuXtXqX6X3X=XW d # O < 1 1 2 3 4 4 4 4 4 4 4 4 4 9 q e y u p p a s s r : k ~ :X4X7XwXtXuXuXtXwXqX5X<XXX@.' N.",
"{ @.XX2X7XwXtXuXuXuXuXtXqX8X4X=XQ + o O < 1 1 2 3 4 4 4 4 4 4 4 4 4 9 q e y y i p a s a q $ j OX>X4X8XwXtXuXuXuXuXtXqX6X,X X..N.",
"X.{.>X7XeXuXuXuXaXuXuXtXqX8X4X:X~ @ O O < 1 1 2 3 3 4 4 4 4 4 4 4 7 9 q e y y i p p s p 8 $ j OX,X5X8XwXtXuXuXaXuXuXtXeX6X=X'.V.",
"@.&X5XqXaXaXaXuXaXuXuXtXwX8X3X;XOXj O O < 1 1 2 3 3 4 4 6 6 5 5 5 6 8 0 e e y i p p p y 3 # S @X:X4X8XwXtXuXuXaXuXaXaXiX9X4XXXOX",
"].;X7XrXsXaXaXaXaXaXuXqX4X:X-X-X@XS # O < 1 2 $ - : D F F K K K K K K J F G > w u i p q 3 % W &X-X;X>X5XwXuXaXaXuXaXaXsXeX6X*X[.",
"{.1X0XiXsXaXuXaXuX8X2X:X>X2X4X2X=XW + O $ % D K 8.e.f.j.L.P.I.U.U.U.T.T.K.D.y.*.K G > 8 2 j ~ ;X3X4X2X:X>X3XqXuXaXaXaXsXiX9X=X}.",
"{.2XqXaXdXaXuXwX3X1X5XqXwXqX6X4X:XOXj @ v 5.s.x.U.Y.Y.U.I.I.P.P.I.U.Y.R.W.Q.Q.~.).!.w.F ; S @X>X5X8XqXwX8X3X1X5XtXaXaXdXiX9X>X}.",
"{.<XqXaXdXaXaXwXwXuXaXuXtXwX8X5X,X%XH C t.a.z.x.P.P.l.l.h.a.i.u.u.i.g.l.P.Y.E.~._.$X).D.m W *X2X5X8XwXtXuXuXtXqXtXaXsXdXaX9X=X}.",
"'.=X9XiXdXdXaXaXaXaXuXuXtXwXqX6X3X;X~ n 7.p.h.l.h.i.t.5.C m c c c n m Y 9.s.x.T.^.).T.e.v OX:X4X6XqXwXuXuXuXaXaXaXaXdXsXrX6X&X[.",
"+.XX4XeXaXsXdXsXaXaXaXaXaXrXwX8X5X>X%XH Y u.p.u.6.C c c C Y T R R T Y m c n A e.L.U.f.Z Q *X<X6X9XeXtXaXaXaXaXaXsXdXsXiXqX2X}.OX",
"} ].;X7XeXpXdXdXdXdXdXdXsXaXrXqX7X1X-XOXv R 6.C c C 6.t.u.i.d.g.g.g.d.u.t.R m c Y t.T H @X;X3X7XeXiXaXdXdXdXdXdXdXdXaXeX5X*X`.V.",
"] ..{.,X7XrXpXdXdXdXdXdXdXaXrXqX6X1X*X XQ x c m 6.u.g.g.j.j.z.z.x.x.x.z.j.g.t.R n c h s .X-X3X7XeXiXsXdXdXdXdXdXdXpXrX6X=X].X.B.",
"] ' +.{.=X5XqXyXpXpXdXdXpXrXqX6X1X&X{.+.V g Y t.d.h.j.z.x.P.P.P.I.I.P.P.P.P.z.g.t.C h ( `..X-X3X7XeXiXpXdXdXpXpXrX9X4X*X].O.] B.",
"] ] ' ..'.XX;X2X6X9XqXqX7X5X1X*X.X'.o.$.h Y t.g.j.l.x.P.P.P.D.y.f.K.U.U.U.U.U.P.j.t.C l ( +.].XX;X3X6X9XqXqX7X5X1X*XXX'.X.] ] B.",
"] { ] ] } +.'.}.XX&X*X&X&XXX{.`...} ( l C t.g.j.z.L.P.I.L.q.L U U L w.I.Y.Y.Y.Y.I.z.t.m N ] } +.'.}.XX&X*X&X&XXX{.'.o.} ] ] { B.",
"{ | | { [ ] } X...+.@.@.+.o.} ' ' ' V c 9.i.j.z.P.P.I.I.e.q.K.U.U.D.E A.Y.Y.R.E.R.U.z.9.z $.] ' } X...+.@.@.+.o.X.] ] ] ] ] { B.",
"] ] | ] ] ' ' ] ' ' ' ] [ [ ] ' ' ` l Y t.g.j.P.P.I.I.I.L.I.Y.Y.Y.Y.I.L.Y.Y.R.E.E.R.U.f.C N ' ' ' ' ' ' ' _ ' ] ] ' { | { { { B.",
"] ] ' ' ' ' ] ] ] ] ] ' ' ' ' ' ' $.z 6.i.j.z.P.I.I.I.U.U.U.Y.Y.Y.Y.Y.Y.Y.E.E.W.W.W.Y.L.9.l ( ] ' ' _ ' ' ' ' ] ] ] { | { | { B.",
"] ] ] ] ' ' ' ' ' ] ' ' ' ' ' ' ' V m r.d.j.x.P.P.U.U.I.U.Y.Y.Y.Y.Y.Y.Y.Y.E.W.E.W.W.W.U.t.z $.] ' ' _ _ ' ' ] ' ] ] ] ] ] ] { B.",
"' ] | | | ] ] ] ' ] ' ' ' ] ' ] ] V M t.g.j.L.f.L q.q.U D.Y.Y.Y.Y.Y.R.A.U w.q.U T.~.~.T.s.b #.' ' ' ' _ ' ' ] ] ] ] ] ' ] ] ] B.",
"{ | | | | ] ] | ] ] ' ' ' ' ' ] ] V M t.g.z.P.E f ! S f w.Y.Y.Y.Y.Y.Y.U f H f f A.(.(.W.s.n #.' ' ' ' ' ] ] { { ] ] ] ' ' ] ] B.",
"{ | | ] | | { { | { ] ] ] ' ' { | V m t.g.z.P.E f ! #X#Xw.Y.Y.Y.Y.R.Y.U S ! G.! A.(.(.W.s.b $._ ' ' ' ] ] { { { ] { { ] ' ' { B.",
"{ | | | | | ] ] | { { | | | ] | | $.c r.d.z.P.D.H f G.G.D.Y.Y.Y.Y.R.E.A.S H #X#X!.(.~.T.0.h ( ' ' ' ' ' ] ] ] ] ] | | { ' ' ] B.",
"{ | | | | { ] ] { ] ' ] ] | | | | &.h R u.j.P.U.D.w.w.D.Y.Y.Y.Y.R.E.W.W.F.w.A.^.(.(.~.L.T l ` ] ] { { { { ] ' ' ] { | ] ' ] ] B.",
"] { { { { ] ] { { ] ' _ ' { | | { ] N m t.g.P.U.Y.Y.Y.Y.Y.Y.Y.R.E.W.W.W.Q.Q./.(.(.(.T.s.n V ' ' ] { { ] { ] ] ' ] ] ' ' ' ' ' N.",
"] ' { | | | | { ] ] ' ' ' ] | | | | $.z R i.z.P.U.Y.Y.Y.Y.Y.Y.E.W.W.W.Q.Q.Q./.(.(.~.L.T l ` { ] ' ] ' ' ' ' ' ' ' ' ' ' ' ' ' B.",
"] ' { | { | { { ] ' ' ] ] { | { ] { ] V c 9.g.L.P.U.Y.Y.Y.R.E.W.W.W.Q.Q.Q./.(./.Q.L.9.z $.] ] ] ] ] ' ' ' ' ' ' ' ' ] ] ] ] { B.",
"] ] { ] ] ] ] ] ] ' ] { ] | ] ' ] { | ` N n 9.g.x.L.L.Y.Y.E.E.W.W.W.Q.Q.W.T.W.E.L.9.z V ] ] ] ' ] ] ] ' ' ' ' _ ' ] ] ] { ] ' B.",
"] ] ] ] ] { ] ] ] ] { | { { ] ' ' ] { | =.B b 5.i.s.f.I.U.Y.E.E.W.W.W.W.E.D.D.f.T z V ` ' ' ' ' ' ' ] ' ' ] { ] ] ] ' { ] ' ' B.",
"| { { { { ] ' ] { { ] ] ] ] ] ' _ _ ] ] { =.V z T e.s.j.L.P.U.U.Y.Y.Y.U.P.f.e.Z l $.] ] ] ] ] ' ] ] | | { { | { ] ] ' ] ' ' ' B.",
"| | | ] ] ' ' ] ] { ] ' ] { ] ] ' _ ] { | | { &.*.Z m T 9.u.s.f.f.d.s.0.T m I *.&.] ] ] ] ] ' ' ] { { | | | | { ] ] ] ' ' ' ' B.",
"| | { ] ' ' { | ] | { ] | { ] | { ] { | | { { 3.3.&.V l z b n m m n z h l V &.4.;.' ] ] { ] ' ' ] ' ] ] { | { ] ] ] { ] ] ' { C.",
"| { { { ] ] | | { | | | { ] | | { { { { ] ] 3.4.-.| { ` &.$.$.V V $.$.( ' _ ] -.4.;.] ' ' ' ' ' ] ' ' ' ' ] ] ] ] ' ' ' ' ' { C.",
"| { | { ] ] { | { | | | ' ] | { ] ] { ] ] 3.3.` ] { { { ] | | ] ] | ] ] ] ] ' ] -.4.;.] ] ] ' ' ' ] ] ] ' ' ' ] ] ' ' _ ' ] { B.",
"| { | { { { { { ] ] ] { { ] { ] ] ] ] -.3.3.` _ ' ] ' ' ] { { { { { ] ] ] ] ] { | -.4.3.-.] ] { ] { | { ` ' _ ' ' ' _ _ ' ] { B.",
"] | | { { | { { ] ] %.P &.] ' ' ] -.3.4.3.] _ _ ) ) _ _ ' ] ] { { ] { { { { ] { ] ] =.3.4.;.-.| | | | %.P %.' ] ] ] ' ' ] { | C.",
"] ] ] { { ] | | | ` P L %.-.;.;.3.4.3.-.| ] ] ' _ _ _ _ ' ] { { ] ' ] { | { ] ' ' ' ' ] -.3.4.3.;.-.-.*.L %.] ] { { { { { | | B.",
"B.n.n.B.B.N.B.B.B.N.M.c.m.S.m.m.M.C.B.B.B.N.n.N.N.n.n.N.N.B.B.B.N.N.B.B.B.B.N.N.N.N.N.N.n.n.C.M.m.S.S.c.c.C.N.B.B.B.B.B.B.B.B.+X"
};
