/* XPM */
static char *_637f19bc18e4d8ec90c137465211f024aedKEjG2rtuq0Oo[] = {
/* columns rows colors chars-per-pixel */
"64 64 189 2 ",
"   c #3C342E",
".  c #3D3531",
"X  c #493E2B",
"o  c #503F2A",
"O  c #443C37",
"+  c #433C39",
"@  c #774F1F",
"#  c #4C462C",
"$  c #5A4827",
"%  c #54432C",
"&  c #544C2A",
"*  c #4E512B",
"=  c #53542B",
"-  c #5C532C",
";  c #525A2C",
":  c #4C423B",
">  c #554633",
",  c #5B4A34",
"<  c #5A5530",
"1  c #624825",
"2  c #6B4D22",
"3  c #644D2B",
"4  c #6A4F29",
"5  c #714D22",
"6  c #64552C",
"7  c #6B522B",
"8  c #6E582C",
"9  c #7B5524",
"0  c #72542A",
"q  c #785629",
"w  c #755A2D",
"e  c #7B5C2C",
"r  c #604E36",
"t  c #6A5332",
"y  c #675638",
"u  c #6D593A",
"i  c #765B31",
"p  c #765C35",
"a  c #54642C",
"s  c #576D2D",
"d  c #5C762C",
"f  c #5E792D",
"g  c #5E6433",
"h  c #7D602D",
"j  c #617A2F",
"k  c #616834",
"l  c #776039",
"z  c #7C623B",
"x  c #677A34",
"c  c #4B4443",
"v  c #4D4749",
"b  c #534C4F",
"n  c #544E52",
"m  c #595459",
"M  c #685C49",
"N  c #605D59",
"B  c #6A6255",
"V  c #5F5961",
"C  c #635C65",
"Z  c #655F69",
"A  c #706B60",
"S  c #767169",
"D  c #7A7975",
"F  c #7A7A74",
"G  c #8B571C",
"H  c #9A5D19",
"J  c #A56417",
"K  c #B46A14",
"L  c #B6741E",
"P  c #865B23",
"I  c #835D29",
"U  c #82622D",
"Y  c #8B652B",
"T  c #8C682E",
"R  c #926628",
"E  c #946B2C",
"W  c #9C6C28",
"Q  c #97702E",
"!  c #9B722E",
"~  c #86693D",
"^  c #8B6C3E",
"/  c #A16E28",
"(  c #A67127",
")  c #AB7527",
"_  c #A57329",
"`  c #A5792E",
"'  c #AB7C2E",
"]  c #B17727",
"[  c #B47A27",
"{  c #BB7E27",
"}  c #D57A0E",
"|  c #D87C0E",
" . c #C87411",
".. c #9B7741",
"X. c #A37D43",
"o. c #62832D",
"O. c #658C2D",
"+. c #688E2F",
"@. c #6B932E",
"#. c #6E9C2D",
"$. c #719E2F",
"%. c #6A8E30",
"&. c #768939",
"*. c #6C9131",
"=. c #7A9837",
"-. c #7C9439",
";. c #6FA12A",
":. c #73A42D",
">. c #76AB2D",
",. c #79AD2F",
"<. c #7AB02F",
"1. c #76A431",
"2. c #7BAF30",
"3. c #7DB131",
"4. c #839B3C",
"5. c #AF802F",
"6. c #BF8027",
"7. c #B3822E",
"8. c #BA862F",
"9. c #BD892F",
"0. c #8EA93F",
"q. c #82B333",
"w. c #8CB738",
"e. c #94BB3C",
"r. c #9BBE3F",
"t. c #CF811C",
"y. c #E18C1A",
"u. c #C48327",
"i. c #C98727",
"p. c #CD8926",
"a. c #C38D2E",
"s. c #D28B26",
"d. c #D88F26",
"f. c #CD932E",
"g. c #DD9226",
"h. c #D2962F",
"j. c #DA9C2F",
"k. c #C48D30",
"l. c #C79030",
"z. c #CB9230",
"x. c #D29630",
"c. c #D59930",
"v. c #DC9D30",
"b. c #E29526",
"n. c #E79826",
"m. c #EF9D26",
"M. c #F29F25",
"N. c #E09F31",
"B. c #E0A02F",
"V. c #F4A025",
"C. c #E4A331",
"Z. c #E9A631",
"A. c #EDA931",
"S. c #F4AD31",
"D. c #F7B031",
"F. c #F9B132",
"G. c #A78044",
"H. c #AD8446",
"J. c #B58A47",
"K. c #9BBA42",
"L. c #81807B",
"P. c #CC9B4E",
"I. c #D4A04F",
"U. c #D6A350",
"Y. c #DAA551",
"T. c #E4AC53",
"R. c #ECB255",
"E. c #F5B957",
"W. c #F7BA58",
"Q. c #FCBE59",
"!. c #9EC141",
"~. c #A2C443",
"^. c #FFC15A",
"/. c #878884",
"(. c #91928E",
"). c #969997",
"_. c #9CA09E",
"`. c #9EA2A1",
"'. c #A4A9A9",
"]. c #ADB3B1",
"[. c #B4BAB9",
"{. c #BAC1C0",
"}. c #C8D0CF",
"|. c #CCD5D4",
" X c #D6E0DF",
".X c #DCE6E5",
"XX c #E3EEED",
"oX c #E7F2F1",
"OX c #E9F4F3",
/* pixels */
">.,.,.,.,.,.2.,.,.,.2.e.!.!.e.q.>.>.,.,.>.>.>.>.>.3.w.w.e.r.w.,.>.>.,.2.2.2.2.,.,.2.,.2.2.2.2.,.,.2.3.2.2.3.3.2.,.>.>.>.>.>.>.2.",
">.,.3.3.3.,.,.,.,.3.q.r.~.~.!.w.q.,.>.>.>.>.>.>.3.w.e.r.r.r.e.q.2.>.,.3.3.3.3.3.3.,.,.,.3.3.3.3.3.3.3.3.3.3.q.3.3.2.,.>.>.>.>.>.",
">.,.3.3.2.>.>.>.>.@.%.-.4.4.4.4.=.*.O.O.O.O.O.O.*.=.=.-.4.4.-.=.%.O.O.+.+.O.O.%.+.O.O.O.+.O.O.O.%.*.*.*.%.%.*.*.1.2.,.>.>.>.>.>.",
">.>.3.3.2.,.,.:.a $ 2 2 2 2 2 2 2 2 2 2 2 2 2 2 2 2 2 2 2 2 2 2 2 2 2 2 2 2 2 2 2 2 2 2 2 2 2 2 2 2 2 2 2 2 2 1 ; #.,.,.,.>.>.>.",
",.,.2.2.2.,.>.a @  .| | | | | | | | | | | | | | | | | | | | | | | | | | | | | | | | | | | | | | | | | | | | | } G = :.,.2.,.>.:.",
",.,.2.3.3.3.O.$  .| | | | | | | | | | | | | | | | | | | | | | | | | | | | | | | | | | | | | | | | | | | | | | | } 5 f >.,.>.>.:.",
",.,.3.3.3.3.s G | | | | | | | | | | | | | | | | | | | | | | | | | | | | | | | | | | | | | | | | | | | | | | | | | J ; :.>.>.>.>.",
">.>.,.2.3.2.a H | | | | | | | | | | | | | | | | | | | | | | | | | | | | | | | | | | | | | | | | | | | | | | | | | K = :.>.>.>.>.",
">.>.>.>.2.,.a H | | | | | | | | | | | | | | | | | | | | | | | | | | | | | | | | | | | | | | | | | | | | | | | | | K = ;.>.>.>.>.",
">.,.>.>.,.<.o.5 } | | | | | | | | | | | | | | | | | | | | | | | | | | | | | | | | | | | | | | | | | | | | | | | | G a >.>.>.>.,.",
">.,.,.,.2.3.1.= H | | | | | | | | | | | | | | | | | | | | | | | | | | | | | | | | | | | | | | | | | | | | | | | K & @.3.>.>.,.3.",
",.,.,.>.>.2.3.*.& G J J J J J J J J J J J J J J J J J J J J J J J J J J J J J J J J J J J J J J J J J J J J J H $ f >.2.2.,.,.,.",
"2.2.,.>.>.,.2.2.a 1 9 9 9 9 9 9 9 9 9 9 9 9 9 9 9 9 9 9 9 9 9 9 9 9 9 9 9 9 9 9 9 9 9 9 9 9 9 9 9 9 9 9 9 9 9 2 * :.>.>.,.2.,.>.",
"3.3.2.,.>.>.3.1.* L y.y.y.y.y.y.y.y.y.y.y.y.y.y.y.y.y.y.y.y.y.y.y.y.y.y.y.y.y.y.y.y.y.y.y.y.y.y.y.y.y.y.y.y.y.t.$ @.,.>.>.,.,.>.",
"2.2.2.,.>.,.1.a % 5 P P P P P P P P P P P P P P P P P P P P P P P P P P P P P P P P P P P P P P P P P P P P P 9 $ * O.>.,.,.,.,.",
",.2.2.,.,.$.; e s.] _ W % I _ _ _ _ _ _ _ / % I _ _ _ _ _ _ _ W % Y _ _ _ _ _ _ _ R o R _ _ _ _ _ _ _ R o Y _ ) s.( $ d :.>.,.,.",
">.,.2.3.@.= Y n.M.M.V.] 0 b.M.M.M.M.M.M.V.i.4 g.M.M.M.M.M.M.M.n.7 p.V.M.M.M.M.M.M.m.e ( V.M.M.M.M.M.M.m.Y Y M.M.m.m.u.7 a $.>.>.",
">.,.2.+.& / m.M.m.M.g.4 ] M.m.m.m.m.m.m.m.Y R m.m.m.m.m.m.m.m.b.4 i.M.m.m.m.m.m.m.M.[ 0 b.m.m.m.m.m.m.M.p.3 u.M.m.m.M.g.I * @.>.",
",.3.@.& ] m.m.m.m.M.( q n.m.m.m.m.m.m.M.s.4 s.M.m.m.m.m.m.m.m.b.7 i.M.m.m.m.m.m.m.m.n.q { M.m.m.m.m.m.m.m.R I m.m.m.m.M.m.W = :.",
"3.2.a W M.m.m.m.m.m.u.p.M.m.m.m.m.m.m.m.g.u.m.m.m.m.m.m.m.m.m.m.{ b.m.m.m.m.m.m.m.m.m.i.s.M.M.M.M.m.m.m.M.g.{ m.m.m.m.m.M.b.3 @.",
"q.2.= u.M.m.m.m.m.M.M.M.M.M.m.m.m.m.m.m.m.M.m.m.m.m.m.M.M.M.M.M.M.m.m.m.m.m.m.m.m.m.m.M.m.i.] [ s.m.M.m.m.m.M.m.m.m.m.m.m.( = 1.",
"q.q.a ( M.M.M.M.m.s.) R W { b.M.m.m.m.m.m.m.m.m.m.M.b.6.) ( { b.M.m.m.m.m.m.m.m.m.m.m.6.0 3 0 0 3 I s.M.m.m.m.m.m.m.m.n.Y = +.3.",
"3.q.%.& / s.d.u.Y 3 w T T 0 0 u.M.m.m.m.m.m.m.m.m.[ 0 0 Y U 7 7 ] m.m.m.m.m.m.m.m.M.[ 3 ` C.S.A.c.Y 3 p.M.m.m.m.m.m.m.W X O.,.3.",
",.2.2.f o 7 3 3 Y x.S.F.F.A.' 3 [ m.M.M.m.m.M.m.( 7 8.A.S.S.A.7.3 W m.m.m.m.m.m.M.p.3 7.F.F.F.F.F.S.! 7 d.M.m.m.M.M.] 3 7 d >.2.",
">.>.>.d E C.c.C.S.F.F.F.F.F.F.8.3 R p.b.n.b.u.Y w x.F.F.F.F.F.F.z.3 W n.M.M.M.M.s.7 ! D.F.F.F.F.F.F.S.Q 0 { b.n.g.( 3 9.9.; :.,.",
">.>.:.= z.F.F.F.F.F.F.F.F.F.F.F.c.T 7 4 0 0 w ` Z.F.F.F.F.F.F.F.F.x.7 q ) u.{ W 4 Q S.F.F.F.F.F.F.F.F.S.5.7 7 0 3 w k.F.C.6 @.,.",
",.,.@.6 Z.F.F.F.F.F.F.F.F.F.F.F.F.D.C.z.z.c.A.F.F.F.F.F.F.F.F.F.F.F.C.` w 7 7 Y z.S.F.F.F.F.F.F.F.F.F.F.F.Z.z.k.x.A.F.F.S.U f 3.",
"2.3.f Y F.F.F.F.F.F.F.F.F.F.F.F.F.F.F.F.F.F.F.F.F.F.F.F.F.F.F.F.F.F.F.F.S.Z.A.F.F.F.F.F.F.F.F.F.F.F.F.F.F.F.F.F.F.F.F.F.F.` a 3.",
",.,.a ' F.F.F.F.F.F.F.F.F.F.F.F.F.F.F.F.F.F.F.F.F.F.F.F.l.` C.F.F.S.7.' S.F.F.F.F.F.F.F.F.F.F.F.F.F.F.F.F.F.F.F.F.F.F.F.F.z.= :.",
">.:.; z.F.F.F.F.F.F.F.F.F.F.F.F.F.F.F.F.F.F.F.F.F.F.F.F.v.U e 9.9.Q 7 a.D.F.F.F.F.F.F.F.F.F.F.F.F.F.F.F.F.F.F.F.F.F.F.F.F.C.- @.",
">.#.- N.F.F.F.F.F.F.F.F.F.F.F.F.F.F.F.F.F.F.F.F.F.F.F.F.F.7.% p l % Y S.F.F.F.F.F.F.F.F.F.F.F.F.F.F.F.F.F.F.F.F.F.F.F.F.F.A.8 o.",
",.@.6 A.F.F.F.F.F.F.F.F.F.F.F.F.F.F.F.F.F.F.F.F.F.F.F.F.f.t J.E.Q.U.p ` D.F.F.F.F.F.F.F.F.F.F.F.F.F.F.F.F.F.F.F.F.F.F.F.F.F.U x ",
"q.%.w S.F.F.F.F.F.F.F.F.F.F.F.F.F.F.F.F.F.A.a.Q E ` f.C.w J.^.^.^.^.Y.t f.j.` E E 7.C.F.F.F.F.F.F.F.F.F.F.F.F.F.F.F.F.F.F.F.E x ",
"e.&.U S.F.F.F.F.F.F.F.F.F.F.F.F.F.F.F.F.h.i A (.`.(.A t p E.Q.W.E.W.Q.X.3 B /._.).D u 8.D.F.F.F.F.F.F.F.F.F.F.F.F.F.F.F.F.F.! k ",
"~.&.Y F.F.F.F.F.F.F.F.F.F.F.F.F.F.F.F.j.u )..XOXOXOX XN p ..l u u p ~ ^ : [.OXOXOXXX[.M 9.F.F.F.F.F.F.F.F.F.F.F.F.F.F.F.F.F.` g ",
"~.&.Y F.F.F.F.F.F.F.F.F.F.F.F.F.F.F.D.T /.oXOXoXoXoX Xm + v b m m n v c O [.OXoXoXoXOX].u Z.F.F.F.F.F.F.F.F.F.F.F.F.F.F.F.F.` g ",
"~.&.Y F.F.F.F.F.F.F.F.F.F.F.F.F.F.F.C.u }.OXoXoXoXOX}.v C C m m m m C Z c ).OXoXoXoXoX.XB f.F.F.F.F.F.F.F.F.F.F.F.F.F.F.F.F.` g ",
"~.&.U S.F.F.F.F.F.F.F.F.F.F.F.F.F.F.B.M |.OXoXoXoXOX[.+ c : > , r , : c + /.OXoXoXoXoXXXS 9.F.F.F.F.F.F.F.F.F.F.F.F.F.F.F.F.` k ",
"~.-.e S.F.F.F.F.F.F.F.F.F.F.F.F.F.F.A.u {.OXoXoXoXOX]., G.P.T.R.R.T.I.J.u D oXoXoXoXOX XB f.F.F.F.F.F.F.F.F.F.F.F.F.F.F.F.F.E x ",
"!.4.w A.F.F.F.F.F.F.F.F.F.F.F.F.F.F.F.Q D .XOXoXoXOX].z Q.^.^.^.^.^.^.^.H.L.OXoXoXOXoX_.i A.F.F.F.F.F.F.F.F.F.F.F.F.F.F.F.F.Y x ",
"!.0.6 C.F.F.F.F.F.F.F.F.F.F.F.F.F.F.F.C.i D }.XXXXXX'.u E.^.Q.^.^.Q.^.^...D .XXXXX X).y f.F.F.F.F.F.F.F.F.F.F.F.F.F.F.F.F.S.w -.",
"!.K.< x.F.F.F.F.F.F.F.F.F.F.F.F.F.F.F.F.C.T M S D S y , Y.^.^.^.^.^.^.E.z , B D D M i f.F.F.F.F.F.F.F.F.F.F.F.F.F.F.F.F.F.Z.6 =.",
"r.K.k 8.F.F.F.F.F.F.F.F.F.F.F.F.F.F.F.F.F.S.j.8.' a.j.7 r ~ X.J.J.X.^ u % k.f.7.7.h.S.F.F.F.F.F.F.F.F.F.F.F.F.F.F.F.F.F.F.v.- 1.",
"e.r.x Q F.F.F.F.F.F.F.F.F.F.F.F.F.F.F.F.F.F.F.F.F.F.F.! + v c c c c v c 7 S.F.F.F.F.F.F.F.F.F.F.F.F.F.F.F.F.F.F.F.F.F.F.F.9.; 2.",
"q.q.%.w S.F.F.F.F.F.F.F.F.F.F.F.F.F.F.F.F.F.F.F.F.F.F.c.> m Z Z Z Z C : 7.F.F.F.F.F.F.F.F.F.F.F.F.F.F.F.F.F.F.F.F.F.F.F.F.Q d 2.",
",.,.#.- v.F.F.F.F.F.F.F.F.F.F.F.F.F.F.F.F.F.F.F.F.F.F.F.` : V Z Z C v w A.F.F.F.F.F.F.F.F.F.F.F.F.F.F.F.F.F.F.F.F.F.F.F.A.8 O.<.",
">.>.>.a 7.F.F.F.F.F.F.F.F.F.F.F.F.F.F.F.F.F.F.F.F.F.F.F.A.T : b n c 7 v.F.F.F.F.F.F.F.F.F.F.F.F.F.F.F.F.F.F.F.F.F.F.F.F.x.= :.2.",
":.>.>.f h S.F.F.F.F.F.F.F.F.F.F.F.F.F.F.F.F.F.F.F.F.F.F.F.S.E   . 7 C.F.F.F.F.F.F.F.F.F.F.F.F.F.F.F.F.F.F.F.F.F.F.F.F.F.! s ,.,.",
">.>.>.#.= x.F.F.F.F.F.F.F.F.F.F.F.F.F.F.F.F.F.F.F.F.F.F.F.F.v.% . 7.F.F.F.F.F.F.F.F.F.F.F.F.F.F.F.F.F.F.F.F.F.F.F.F.F.Z.6 @.,.>.",
">.,.,.>.s E F.F.F.F.F.F.F.F.F.F.F.F.F.F.F.F.F.F.F.F.F.F.F.F.D.T $ C.F.F.F.F.F.F.F.F.F.F.F.F.F.F.F.F.F.F.F.F.F.F.F.F.F.7.; :.>.>.",
"2.3.3.>.@.- v.F.F.F.F.F.F.F.F.F.F.F.F.F.F.F.F.F.F.F.F.F.F.F.F.v.z.F.F.F.F.F.F.F.F.F.F.F.F.F.F.F.F.F.F.F.F.F.F.F.F.F.A.w o.,.,.2.",
"3.3.,.>.>.a Q F.F.F.F.F.F.F.F.F.F.F.F.F.F.F.F.F.F.F.F.F.F.F.F.F.F.F.F.F.F.F.F.F.F.F.F.F.F.F.F.F.F.F.F.F.F.F.F.F.F.F.8.= :.3.2.,.",
",.>.>.>.>.@.- c.F.F.F.F.F.F.F.F.F.F.F.F.F.F.F.F.F.F.F.F.F.F.F.F.F.F.F.F.F.F.F.F.F.F.F.F.F.F.F.F.F.F.F.F.F.F.F.F.F.Z.8 o.,.3.2.,.",
">.>.,.>.2.3.d Y S.F.F.F.F.F.F.F.F.F.F.F.F.F.F.F.F.F.F.F.F.F.F.F.F.F.F.F.F.F.F.F.F.F.F.F.F.F.F.F.F.F.F.F.F.F.F.F.F.` a >.3.2.,.2.",
">.,.3.,.>.,.:.= 9.F.F.F.F.F.F.F.F.F.F.F.F.F.F.F.F.F.F.F.F.F.F.F.F.F.F.F.F.F.F.F.F.F.F.F.F.F.F.F.F.F.F.F.F.F.F.F.c.- @.<.,.,.>.,.",
">.,.3.,.>.>.>.o.6 v.F.F.F.F.F.F.F.F.F.F.F.F.F.F.F.F.F.F.F.F.F.F.F.F.F.F.F.F.F.F.F.F.F.F.F.F.F.F.F.F.F.F.F.F.F.A.e f ,.,.,.,.>.,.",
",.,.2.,.,.>.>.>.s h C.Z.Z.Z.Z.Z.Z.Z.Z.Z.Z.Z.Z.Z.Z.Z.Z.Z.Z.Z.Z.Z.Z.Z.Z.Z.Z.Z.Z.Z.Z.Z.Z.Z.Z.Z.Z.Z.Z.Z.Z.Z.Z.Z.Z.Q a 2.,.,.2.3.,.,.",
",.,.2.2.2.,.,.,.:.* 7 i i i i i i i i i i i i i i i i i i i i i i i i i i i i i i i i i i i i i i i i i i i w # *.3.,.,.,.,.,.,.",
",.,.,.,.,.,.2.,.@.r P.Y.Y.Y.Y.Y.Y.Y.Y.Y.Y.Y.Y.Y.Y.Y.Y.Y.Y.Y.Y.Y.Y.Y.Y.Y.Y.Y.Y.Y.Y.Y.Y.Y.Y.Y.Y.Y.Y.Y.Y.Y.Y.Y.U.l j ,.>.>.>.>.,.2.",
",.,.2.3.3.2.3.3.f ~ ^.^.^.^.^.^.^.^.^.^.^.^.^.^.^.^.^.^.^.^.^.^.^.^.^.^.^.^.^.^.^.^.^.^.^.^.^.^.^.^.^.^.^.^.^.H.a ,.,.>.>.>.,.3.",
",.2.3.3.3.3.3.3.o.z Q.^.^.^.^.^.^.^.^.^.^.^.^.^.^.^.^.^.^.^.^.^.^.^.^.^.^.^.^.^.^.^.^.^.^.^.^.^.^.^.^.^.^.^.^.X.a >.>.>.>.>.,.3.",
">.,.3.3.3.2.,.3.$.< ..H.H.H.H.H.H.H.H.H.H.H.H.H.H.H.H.H.H.H.H.H.H.H.H.H.H.H.H.H.H.H.H.H.H.H.H.H.H.H.H.H.H.H.G.r O.>.>.,.>.,.2.q.",
">.>.>.,.2.,.,.,.,.O.d d d d d d d d d f f d f j d d d f f f d d d f j j j j j j j d f f f d f f d d d d d d d o.,.>.>.,.,.2.3.w.",
">.>.>.,.2.3.3.2.,.,.,.,.,.,.>.>.>.>.>.,.3.3.3.3.>.>.,.3.3.3.,.>.>.3.q.q.q.3.3.3.3.,.,.,.,.,.,.,.>.>.>.>.>.>.,.3.,.>.>.>.,.3.q.e."
};
