/* XPM */
static char *dbe908fb1b9647b0a50c03e3354bf363JcnfoEjndf3ybjFa[] = {
/* columns rows colors chars-per-pixel */
"64 64 42 1 ",
"  c #6DA327",
". c #6FA528",
"X c #71A72A",
"o c #76AB2D",
"O c #79AD2F",
"+ c #76A734",
"@ c #77A835",
"# c #7BAE30",
"$ c #7DAD39",
"% c #7DB132",
"& c #81AF32",
"* c #80AF3B",
"= c #82B133",
"- c #84B133",
"; c #83B234",
": c #84B234",
"> c #84B435",
", c #87B436",
"< c #88B335",
"1 c #89B637",
"2 c #81B03B",
"3 c #82B13D",
"4 c #8AB739",
"5 c #8CB638",
"6 c #8CB739",
"7 c #8CB839",
"8 c #8EB83A",
"9 c #90B738",
"0 c #90B93B",
"q c #92BA3C",
"w c #94BB3D",
"e c #95BB3D",
"r c #95BC3D",
"t c #98BC3E",
"y c #97BE40",
"u c #9BBE40",
"i c #9CBE40",
"p c #9DC042",
"a c #9EC042",
"s c #A1C143",
"d c #A1C244",
"f c #A3C446",
/* pixels */
"OOOoooooOOoO####OOOOOoo##OooO%%%#OOoOO%%%#oXXOOOOoOOOOOOOoooooo@",
"oOOooOOO##OoOO#OoooOOoOOOOXXXO##OOOOO#%%#OoXXooOOOOOOOOOOOOOOOo@",
"ooOooOoO%#OOOOoooXoooooooOX.XoOOOOOOoOOOOooXXXooO#OOOO##OoOOOoo$",
"XooooOooOOO#OOoXooXooooOoOOoooOOoOOOoooOOoOOooooOOooO##OooOooOO$",
"XooOOOOOOOOOooooOoXXOOooXoOOOoOOOOOOOOOoooOOOOOooooOOO#oooXXXoO$",
"ooO###OOOOOOoooOooXo##OXXXooOooO#OXooooooOOOOOOOoOOOOOOooooOooX@",
"oOOO#%###OOOOoooXXo%qq=oXXO#%OoO#o.XooXXOOOOO#OOoOoooooooO=161O@",
"OooOO##O#OO#OoXXXXO6da6#Xo=68=OOOX.o-:OoO##O##oOOOOooooXoO1tsu:$",
"OooO#OOOOOOOOooooXo1dst:oO6iat,OOXX-eu6=O####OOOoO##OOOOoO6adi6$",
"OooOOOOOOOoooooooXo:asa6O#6usdr#oXo0sst1#O###OOOooO#O#OOO=eiat<$",
"ooOooOOoooOOOOoooXo;uddr#O;tsdt=oXo1ist:OoO#OooOooooO##OO1iai6O@",
"OOOoOoOooOOO#OooOoO=eddu:oO6ad6OooO#eae=OoO#oXXOOOooO#OO#0ssi1o@",
"#OOOOooOOOOO#OOOOOO#4ada6Oo#qt&XXoOO8e1##OOOOOXo#OooO#OO%8isu,o@",
"O%%#OooO##OOOOOOOOoO;rfdq#OO#=OXXooO;%OoOOOOOOXo#OOOOO##O%181#o@",
"O%%#OOooOOOoOOOO#OoO%8ur1OOOooOooOOOOOoooOO##OXoO%%%OOOOOOO%#OO@",
"##%%#OoOOOOOOOOO#OoO%;;%#OOOoOOOO###OOOOO#%%#Ooo#%%%OOOOoooOOOo@",
"OoO##%oOOOOOoOOO#OOO%#%#%%#OO#OO#%OOO#OO#%%#OOO##%%%#OOoooOOOOo@",
"#O###%=001#OoooOOOOO####%%OOO##O#OOO#OO#%%%#OOOOOO%%#OOOooooOOO$",
"%#%OO#4iie=OooOOOooOOO###OoooOOOOOOOO###%##OOOOOOOOOOooOoooo#%%$",
"###oXX9aat:oooO%#OO#OO%#OoooooO%;#OOOO###OOooO#%%#oo#OooooOOO%#$",
"o#%Ooo9ssu1OOooO#%%%%#%%#OOOOO=rt,O#OOOOOOOOOOOOOOOO##OOOOOOO%%*",
"OOOOOO6ssa1#OOO#%%##%#%%#OOO#%0ss8OOoXoooOO#%%#OO##O#%#OOO#%%%%$",
"OOOOOO;rit4#OO#OOO#%%%%=%OOO%,rss0#oXXXXoOOO##OOO#%O#%#OOO###O#$",
"OOO##OO;4:=OO#OOOOO%;=%%#O#OO=0isr=OoXXoooOOOOOOO##OO#OooOOOOOO$",
"oOO%%OOO#OOoOOO##OO%%%%OOO#Ooo=tdr#OoXXooooOOO%%#OOooOOoooo#OO#$",
"OOO#%%%OOOOooOO##OO#OOOoOOOoooO6q1OooXXoOoOO##%%%%OOOOOO#OO##OO$",
"OO%%#%#OOOOooO##OOOOOOOoO#OooO#%###OoXoOOoO#OO#%;%##OOOOO###OOO$",
"OO%#OOOOOOooXoOooOOoooooooOOoooooOOOOoO#OoOOOO#%%%%%%#oXoO##Ooo$",
"OOOOOOOOoooXXXXXXXoooooXXXoooooooOOOO#OOOoooO##OO%%%%#OOO###ooo$",
"oO#O#OooooooXXXXXXoOoXXXXoOoooOOOOOO#%%##OOooO#OO%%####O#OOOooO$",
"oO##OoooooOoXXoooXoOoXXooooooOOOOOOOO%%%%##OoOOO###%##OoOOoOOO#3",
"OO#%%OOXooOoooOOoooOOooooooOOOOooOO##%%%%%%#OooO%##%%#OoOOO%%##$",
"oo#%%#oXooooooooXXoOOoooooOOOOOooOO%%%#%,%%%#ooOOOOO##OO%OO#%%%2",
"oooO##OoooOOooOOooooooooooOOOoXXo##%%%O#,,%%%OoooOO#%%OoOOO#%%%3",
"oooo##OoooOOXoO#OOooooooOOOoOOooo%%##Ooo%;;%%%OOO#OO%%OoOO##%%;3",
"oooo####OOOOOO%#OoooOOOoO#OoOOOOOO%#OOXo##%#O##%%%Oo#%#oOO##%%%3",
"OOoOO,e04%#OOOOOOooOOOOoO#OOOOOoOO#OOOoO#O#%#%%%%%OO#%#oooO#%#%2",
"%OoX#raau,OOooo##OOOOOOoO#OOOooooooO#OOO#O#%%%%%%%%##%OoOOO%%OO$",
"#OoX#rasa,OOOoOO#O####OO;,%OOooooXooOOOO#OOO##%%%%%%%#OOO###OXX@",
"OooXO4adi4%OOOOOOOO###O=rt6%OooOoooOO#%#%==,=#OOOO##%##O#%#Oo..@",
"ooooo=tda8%#%#OooOOO###,usi4OoO#OoOOO###;8tu8=#OOOOO##OO##OOoXX$",
"XXoOo#rda8%#%%OOOOOOOO#;udd8#oOOOOOOOOO#,uddy,%#OOooO#OOOOOOOOO*",
"XXOOoO6t0;OO#%#OOoooooo=tdsq%oOOOOOOooO%8addr;%%OoooO#OOOOOOO##$",
"oo#OooO-=OXoO##OOoooXXo=tasu:OOOoOOOOOO#4ddiq%#%#OOOOOOOooOOOOO$",
"oO#OoooooXXXooOOOoOoXoo&eist;OOOOOOO#%OO:usa8%%%%#OOOoOOOOOO#OO$",
"O#OoooXXXooooXXoooooXoo#qiit;OooO%#OOOOO=rdt:O#%%%%OoooOOOOO#OO$",
"OOOoXXXXooOoXoXXoOooooo#0iiq=ooooOOOOOOO#8u4#OOO##%OOOoO#OoOOOO$",
"OoOOXXXXOOoXXooXooooooO#,64=oooX oOOOO##%==#OO####OOooooOOoOO##$",
"OooOoXXO##ooXooooOOOoOO##OOoXXoX.XooOOO%%%%#OO#%%#OooXXooOoOOOO$",
"oXXooooO#OOoooOooOOOoXoO%%#oXooX.XOOO#O%%%%%OOO#%%OOOoXoOOOO#OO$",
"XXXooooOOOOoooOOoOO#OOOO#%%#O#Oo.XO##OO#%%%%#OOO%#OOOOooooOO###$",
"XXXoOoXXoO#OoO==OO#%##OO#%,4,%#oX.XO#OOO#%%%#OOO#%%#OoXXXoOO##O$",
"XXXooX  oO#OO=rt6%#%%%##%8uaq%#oXX.o#OOOO#%%%%%###%%OoXXooOOO%%$",
"ooXooX  XOOOO6aat1##%%%%,edfr;OOoX XOOoO#%%%1q8#OO#%OoooO#OO#%#$",
"OOoooo  XXooo1adse=#%%%%,qddu,#O#oX.oOOO#%%,rai1#OO##OOOO#Oo##O$",
"OOooOoX  .Xoo#tdst=O%%%%,8adi6%###O..oOO%%%qaai1#OO#OOOOOOooOOo$",
"OooooOo   XoO#0aae=O###%=4add8#OO#OX.XooOO%rait;OOOOooooOOoooXo$",
"#ooooOo.  XoOO,usr-OO##%%,tda1OOOOOoXXXoOO#qasu=OO#OooooOOOOooO$",
"%#OoOooX..XOO#%6q1#Oo###O#:41=OOOOOOX.XOooO1ruq=OOOOoooooOOO#OO$",
"%#OoOooXXXoOOOOOOOOOoO##OOoO#%#OOOOOoXXOooo%;:=OOoOooooOOOO###O$",
"###OoXXooo##OOOoXXoooOOOO#OOOOOoooOO#ooOOOOO##OOoooXooooooO%#OO$",
"##OOoXooOO%%%OOXXXXXoO##OOOOOOOOooO#%#OOOOO###OoooXXoOoooooOOOo@",
"O#OOOooo##%%%%OoXXXXoo######O########OO#OO####OOOooooOoo##oo#Oo@",
"$$$$$@@@$$$*33$@+++@@@$$$$$$$$$$$$$$$@$$$$$$*$$@@@@$@@@@$$@@$$$$"
};
