/* XPM */
static char *_eb52a5ad84246abe5de940b6097536dyDYW22ib6BYvTgUS[] = {
/* columns rows colors chars-per-pixel */
"64 64 130 2 ",
"   c #6DA427",
".  c #6FA528",
"X  c #71A727",
"o  c #71A729",
"O  c #76AA2C",
"+  c #79AD2F",
"@  c #7CB02F",
"#  c #7BAF30",
"$  c #7DB132",
"%  c #7FB03B",
"&  c #83B334",
"*  c #89B537",
"=  c #82B33C",
"-  c #8DB738",
";  c #8EB83A",
":  c #91B739",
">  c #93BB3C",
",  c #9ABD3E",
"<  c #85B542",
"1  c #88B745",
"2  c #8AB945",
"3  c #8AB74A",
"4  c #8CB94B",
"5  c #97BE44",
"6  c #9CBF40",
"7  c #95BD4A",
"8  c #8FBB51",
"9  c #93BD54",
"0  c #99BF51",
"q  c #95BE5B",
"w  c #96BE60",
"e  c #9EC042",
"r  c #97C05B",
"t  c #99C15E",
"y  c #A1C244",
"u  c #A2C245",
"i  c #A4C346",
"p  c #A5C447",
"a  c #A6C548",
"s  c #A2C44C",
"d  c #AAC85F",
"f  c #9AC163",
"g  c #9BC263",
"h  c #99C065",
"j  c #9EC46A",
"k  c #A6C766",
"l  c #A2C66B",
"z  c #A1C66C",
"x  c #A4C96E",
"c  c #A8C96A",
"v  c #B2CC66",
"b  c #B4CF6E",
"n  c #A3C673",
"m  c #A4C773",
"M  c #AACB75",
"N  c #A7C97A",
"B  c #AACB7A",
"V  c #A9CA7D",
"C  c #FF8686",
"Z  c #FF8A8A",
"A  c #FD908F",
"S  c #FE9291",
"D  c #FE9C9B",
"F  c #FEA4A4",
"G  c #FEB5B5",
"H  c #FEBEBE",
"J  c #AECD82",
"K  c #B1CF85",
"L  c #B2CF89",
"P  c #B4D287",
"I  c #B5D28B",
"U  c #B7D48D",
"Y  c #B9D58E",
"T  c #B7D391",
"R  c #BAD594",
"E  c #BDD797",
"W  c #BDD699",
"Q  c #BED799",
"!  c #BFD89C",
"~  c #C0D99D",
"^  c #C1D99F",
"/  c #C1D9A2",
"(  c #C5DBA4",
")  c #C4DBA6",
"_  c #C6DCA4",
"`  c #C7DDA8",
"'  c #CADEAD",
"]  c #CBDFAF",
"[  c #CCDFB1",
"{  c #CFE0A8",
"}  c #CEE1B2",
"|  c #D0E3B7",
" . c #D3E4BB",
".. c #D3E4BC",
"X. c #F1DACE",
"o. c #F9DED9",
"O. c #D7E6C2",
"+. c #D7E7C2",
"@. c #D8E7C3",
"#. c #DAE8C5",
"$. c #DEEBCB",
"%. c #E0EBC5",
"&. c #E0ECCE",
"*. c #E4EECD",
"=. c #E2EDD3",
"-. c #E3EED4",
";. c #E6EFD8",
":. c #F3E3D7",
">. c #F7E1DA",
",. c #E7F0D9",
"<. c #E9F1DC",
"1. c #EAF2DF",
"2. c #FFE3E3",
"3. c #F4EDE4",
"4. c #FFEAEB",
"5. c #EBF2E0",
"6. c #EDF4E3",
"7. c #EEF4E5",
"8. c #F4F0E6",
"9. c #F0F6E7",
"0. c #F2F7EA",
"q. c #F9F2EC",
"w. c #F4F8EE",
"e. c #FFF5F5",
"r. c #F6F9F2",
"t. c #F6FAF2",
"y. c #F9FBF6",
"u. c #FAFCF8",
"i. c #FCFDFA",
"p. c white",
/* pixels */
"O + + + + # + $ & $ + O O O + + + # # + + + + # # O O O # # # + + O O O + $ $ $ $ + + + # # $ $ # $ $ # + + + O O O O O O O O O ",
"+ + + + $ # # $ & $ + O o o o O + + + + O O + + + + + + # $ $ # + + + O O $ $ $ $ # # $ $ + # # + + $ $ + # + O + + O O + + + O ",
"+ + O O + # # & 6 ; + O o o o O + + + # O + $ O O + + + + $ $ $ # + # O O + # # $ # $ $ $ # # + + # $ $ # # + O O + + + + + + + ",
"# $ + + $ > > > u 6 * o o o o + + + + $ # # + O O + O + + $ $ $ # + # # + + + # + + + # + + + O + $ $ & & $ O O O O + + + O + + ",
"+ # # # & e u u u e > + O o O + + + + # $ # O O O O O O + + # # # # # # $ # # $ $ $ $ $ # + + O & > > , e - O O O O + + + + + O ",
"O O O O $ 6 u p p u > + O O o o O + + $ $ # + + O O O O O O + + $ $ $ + $ $ $ $ $ $ $ & $ $ # + * e e e e , & + O O + + # # # + ",
"O O O O # , e p p u - O o o o o O + $ $ $ $ # + O O + O o O O + $ $ $ + + $ $ $ $ + # $ $ # # + * u u u e , > # + + + + + $ # + ",
"+ + O O * > 6 u u u > + . . o O + # $ $ + $ $ # + O O O o O + + $ $ $ # + # $ $ $ + + + + # $ $ ; u u u u e ; # # + + + # $ # O ",
"$ + O + > , 6 u u u e * O O O O + # # + O + + # + + O O O O + # $ $ $ $ + + + + $ + O + + # $ & - e p u u u > $ $ # $ $ & $ # + ",
"+ + + + & > e p a p > $ O O O O + + O O + + O + + # + O O O + # $ $ # $ $ + O + # + + # + $ & & - e a a p u > # # # $ & & $ # $ ",
"O O + $ $ & 6 a p e & + O O o O + + O O + + + + + $ $ + + + + + $ # 3 1 $ $ + $ $ $ $ $ + + $ & ; e a a u 6 & + + # $ & $ $ + # ",
"# # $ $ $ $ > e ; & # O O + + + # # + O O + + + # $ $ # # # + + + 4 =.| = $ $ $ % $ $ $ + + # $ & 6 u u , > $ + O + # $ $ + + + ",
"$ $ $ # # # # * & # + O O + + + # # + O O + # + $ $ # + + + + O # ' p.5.3 $ $ r _ 9 $ $ # + # $ & & ; * * & # O o o O + $ $ $ $ ",
"$ $ $ $ # + O + # # O O O + O O + + O O O + + # # # $ $ $ $ $ + f r.p.7.4 + 2 $.p.U $ $ $ $ $ $ & & $ + O + O o . . o O + # $ $ ",
"$ & & $ + O O + $ # o O + + O O O o o o O # $ & $ # & & & & $ # ` p.p.6.3 + R p.p.^ + # $ $ $ $ $ $ $ # o       . o O + + + + # ",
"$ $ $ $ + + + $ # + o O + + O O O V / h # + $ & & & - 6 e 5 & 4 1.p.p.1.< 4 6.p.p.W + + + $ $ $ + # # +       o O o O + + O O + ",
"# # + O + # # $ + + O O O O O O O [ p.r.) 3 + $ > 6 6 u p e * M i.p.p.=.= E p.p.p.P + + + # # # # O O o     o O + + # # + + + + ",
"+ + O o + + # + + + o O O + O O o n u.p.p.=.q $ > e u p p u e { p.p.p...3 1.p.p.u.x + + + # # # + o . . o o O O + $ $ # + + + + ",
"O O o o O + $ $ # + o o + + + O o # O.p.p.p.1.l * 6 p a i u s *.p.p.p.^ B i.p.p.9.8 + + # # # + o . . o O O + + # + + + O O O + ",
"O + O O + # $ $ $ + o O # B R q O X w 0.p.p.p.7.M 6 a a p 6 0 7.p.p.p.I  .p.p.p.#.# + # # + + o . . o o O + $ $ $ & $ & $ + + + ",
"O + + + # $ $ $ $ # O + %  .p.0.! 1 O I i.p.p.p.6.b u a p , k r.p.p.r.R 0.p.p.p.R O + # + O o o   . o O O O # $ ; , ; > ; & # + ",
"# $ # # + # # # # + + # + J i.p.p.=.j % } p.p.p.p.1.d e u > B i.p.p.7.' p.p.p.r.q o O + O O o o o o O + + O + # > u u e > & & $ ",
"$ $ $ # # # # $ $ # # $ $ < #.p.p.p.w.E 9 $.p.p.p.p.#.5 * + J p.p.p.;.=.p.p.p.#.# o O + O O o O O + + # # + O + > p u e > - * $ ",
"$ $ $ $ $ $ $ $ $ # + $ $ @ t 7.p.p.p.p.} m ,.p.p.p.i.R + O I p.p.p.=.0.p.p.p.J o o O + + + O + + + # # + + + # , u u , > - & $ ",
"# $ $ $ $ $ $ $ # # $ $ $ $ $ B w.p.p.p.p.#.I 7.p.p.p.0.r O R p.p.i.,.i.p.p.1.1 O o o O O + = q N R } | _ j $ * , e 6 , , : & # ",
"$ $ $ $ $ $ $ $ # $ $ $ $ $ $ $ K r.p.p.p.p.,.' 0.p.p.p.| # R p.p.y.0.p.p.p.I O + O o % j / ;.w.p.p.p.p.p.} & * > e u 6 , e ; $ ",
"# # $ & & & $ $ $ $ # # # + + + # J w.p.p.p.p.9.#.r.p.p.y.z I p.p.y.y.p.p.;.3 + + 4 R -.y.p.p.p.p.p.p.i.@.9 + # - e u e , u 6 & ",
"O O # $ $ & $ $ $ $ $ # + + + O o O n 6.p.p.p.p.w.&.r.p.p...I p.p.u.p.p.y.B $ 9 ^ 6.p.p.p.p.p.p.p.u.=.K < @ # # * 6 u , , u , & ",
"O O + # $ $ $ $ $ # $ $ # + + O O O O q $.p.p.p.p.r.1.u.p.r.' y.p.p.p.p.' 1 R 7.p.p.p.p.p.p.p.r.O.B = O + + @ # & , 6 , 6 e - # ",
"# # # $ # + + + O + # # + O O + + O + + < W 0.p.p.p.u.0.i.p.,.r.p.p.p.;.V #.p.p.p.p.p.p.y.;./ j 3 3 q l j f 4 $ + * , , 6 , & # ",
"+ # $ $ + O O O O + # # O O + + + O + $ + # f ..u.p.p.i.u.p.q.o.2.e.w...7.p.p.p.p.u.0.$.' ^ ' O.;.7.r.u.u.y.6.r + $ * * & & & $ ",
"O + $ # O O O O O O + # + + + # + O O O + + O % m ..w.p.p.2.F Z Z F X.y.p.p.p.p.y.w.0.0.y.p.p.p.p.p.p.p.p.p.#.3 $ # & $ # $ $ $ ",
"+ # # + O O O + + + O + # + + + % 3 h N J I R R P I _ $.8.F C C C C F e.p.p.p.p.p.p.p.p.p.p.p.p.p.p.p.i.1.R 1 + + + # $ $ $ $ $ ",
"$ $ + + + * & & $ $ + O # 4 B ) $.0.y.p.p.p.p.p.p.p.y.r.>.A C C C C S 2.p.p.p.p.p.p.p.p.p.p.p.p.i.7...B 3 $ $ $ # $ $ $ $ $ $ $ ",
"# # + # * , e 6 > & = j } 7.p.p.p.p.p.p.p.p.p.p.p.p.p.p.4.S C C C C S :.7.0.r.u.u.y.r.w.0.1.@.^ m 8 & @ $ $ $ $ $ # $ $ # # $ & ",
"O O + - , 6 u p e c @.y.p.p.p.p.p.p.p.p.p.p.u.y.i.p.p.p.i.G C C C C G w.=.) B l j f q q 8 < % + + $ $ $ $ $ $ $ # # $ $ + # $ $ ",
"o O # : , 6 6 u b 0.p.p.p.p.p.p.p.p.w.1.&.#.=.0.i.p.p.p.w.3.H D D H e.p.p.u.=.I < O o O + + + + # $ $ $ $ & & $ # $ $ # + # # # ",
"O O O * , 6 6 u v %.1.1.;.$.O.' T K R | ;.w.p.p.p.p.p.$.| u.p.e.3.0.p.p.p.p.p.p.=.N # O # # # # $ $ $ # # $ $ $ # $ # + + # # + ",
"O O + * e u u u u 6 7 3 < = = 8 I $.r.p.p.p.p.p.p.0.W M 0.p.p.p.w.#.p.p.p.p.p.p.p.y.' 4 + $ $ $ $ & $ + O O + + + # + + + # # # ",
"O O + - u p a p u , * + % f ' 7.p.p.p.p.p.p.p.u.O.f < #.p.p.u.p.y.E 0.p.p.y.y.p.p.p.p.,.z $ $ $ # # + O O O + + + # + + + # # # ",
"O + & ; e p p u 6 * # q | r.p.p.p.p.p.p.p.y.$.B = + T p.p.i.y.p.p.J ' p.p.p.7.0.p.p.p.p.w.P % + + + # + O O + + + # + + + $ # $ ",
"O + # $ & > > > * + z 6.p.p.p.p.p.p.p.7.} z = O + 9 7.p.p.r.y.p.p.P q 0.p.p.u.&.1.p.p.p.p.y.R # + # $ # + o O + + # + + # $ $ $ ",
"O O + + # # # # + # | p.p.p.i.r.;.} J 4 % + + + # _ p.p.p.7.u.p.p.I + ! p.p.p.y.} $.p.p.p.p.y.L + + + O + + + + + + + + # $ $ $ ",
"+ + + + $ + + # + O 4 N J V z q < # O O # # + + 9 0.p.p.u.,.p.p.p.I + 3 ;.p.p.p.r.^  .p.p.p.p.r.J # + # $ # O O O + # + + $ $ $ ",
"+ O O O + + O + + + O o o O O + + + O O + # # $ ^ p.p.p.7.=.p.p.p.J + + m r.p.p.p.0.B ^ r.p.p.p.0.f + $ # O O + # # + + + # # # ",
"O O O o O + + + + # + o O O o + # # O O O + + 2 1.p.p.p.O.1.p.p.i.M + $ $ W i.p.p.p.1.f B 7.p.p.p.$.< + + O + $ # + + + # $ $ $ ",
"O + + O # $ + + + + + + O o o + + + O O O O O m u.p.p.y.^ 0.p.p.y.j + + $ =  .p.p.p.p.$.< q O.i.p.p.K + + + + # # + # # # # $ $ ",
"+ # $ # $ $ + O o O + + o . . O O + O O O o + _ p.p.p.;.I u.p.p.0.9 + + # @ 3 #.p.p.p.p./ # = K ;.u.} # + # # + + + $ $ # + $ $ ",
"+ O O O + # + O o o o O o o o o O + O O O O = ;.p.p.p./ R p.p.p.;.< $ # + + O 3 #.p.p.p.r.m O + < z t # + + + O O + # $ # # $ $ ",
"+ O O O O O O O O O O o o O O O O O O O O + q w.p.p.r.l } p.p.p.} # # $ $ + O + 4 O.p.p.p.=.< O O O + # # + # + + + + # + + + + ",
"# # # + + O o O + + + O o + + O + + + $ # O B p.p.p.@.2 $.p.p.p.I + # $ $ # + + + < _ y.p.p.J O + + $ $ + + # # # O O + + O O + ",
"# + + + + + O O + + O O O + + + + + # $ # + R p.p.u.B 1 ,.p.p.r.t $ $ $ $ # + + + O # B =.u.' # + # $ $ + O + + O O O + + O O + ",
"$ # # $ # + O O O O o o + # # + + + + $ $ $ _ p.p.$.= 4 7.p.p.$.= $ & $ $ $ + + + + + + < z q + # # # + O O O O o o o o O o O + ",
"$ $ $ $ $ $ + O O o o O + $ # + + O + $ $ $ _ p.y.m O 9 0.p.p.U @ $ & & $ $ # # # $ # # $ $ + + # # O + + + O O o . . . o O O # ",
"$ $ # + $ $ + O O O O + # # # # + O + $ $ + I i./ # O 9 0.p.6.9 $ & & & $ # # # # $ # # $ # + O + + O + + + O O o o o . o O O O ",
"+ # + + # + O O O + + + + + + # # + # # + O 1 B = + O 1 6.p.Y & & & $ $ # + + # # + + + O o O O + + # O + + + O o o . o O O O O ",
"+ $ $ $ $ $ # + + + O O O O O + + # $ # O + + + $ $ + # ` ` = $ $ $ $ + + + + # + + + + O o O O + # # + O O + + O o o o O O + + ",
"# $ $ $ $ $ # + + + + O O + + + + + $ # + + # # # + + + # % + + + O O + O + + $ + O O O O O O + + # + $ * + + O o o o o O O O O ",
"$ $ # # $ $ + O O O + # $ $ # + + + + # # # $ $ + O O + + + + O O O O O O + & * # O O + + O # $ & * * > 6 & + O O O o o O + O O ",
"$ $ # + + + + + + + + $ $ $ + O + O O + # # $ # + + + + + # + O + + + + & & 6 > # o o O O O $ & > , 6 u e ; # + + O O O # $ + O ",
"+ + + O O O + + + + + $ $ # O O O O O O + + + O + + + + + O O O + + + * , , 6 , * + O O O O O + * , e u u , & + O O O + $ $ + O ",
"O O + O O O O O O O + # + + + O O O O O O O + O O O O O O O O O O O + * , , , 6 > & O + O O O O * 6 u e e 6 - + O O + O + + O o ",
"O O + + O O + + + O O O + + O o o o o o O o o o . o o O O + O o o O # - , , , , , & O + O O O O > e e u u , * + + + # + O + O o ",
"+ + + O O O O + + + + O O O O o o o o O o o o o o o o O + # + O o O + > , , , , e * + O O O O + ; e u u u 6 * # # $ & $ + + + + "
};
