/* XPM */
static char *fe4cb71ae9674fb6c47b64cacdb05480wSSwCrcE45Ovrlge[] = {
/* columns rows colors chars-per-pixel */
"64 64 226 2 ",
"   c #1D1D17",
".  c #273015",
"X  c #2F2928",
"o  c #2D2638",
"O  c #342939",
"+  c #6A3517",
"@  c #773A1A",
"#  c #53342E",
"$  c #49383C",
"%  c #683D2A",
"&  c #6B3F2C",
"*  c #334616",
"=  c #59681B",
"-  c #56433B",
";  c #794729",
":  c #694A37",
">  c #75533A",
",  c #372F41",
"<  c #3C3445",
"1  c #3F3847",
"2  c #433B46",
"3  c #484449",
"4  c #4E4E4E",
"5  c #594B43",
"6  c #544B48",
"7  c #4F504F",
"8  c #56514D",
"9  c #545351",
"0  c #5A5652",
"q  c #5C5A53",
"w  c #6E5845",
"e  c #615D54",
"r  c #685F54",
"t  c #7B6047",
"y  c #656156",
"u  c #6A6559",
"i  c #6C6759",
"p  c #726B5B",
"a  c #77715F",
"s  c #7B7562",
"d  c #813E16",
"f  c #933C25",
"g  c #9E4F0E",
"h  c #9E530F",
"j  c #8A4316",
"k  c #924A16",
"l  c #985811",
"z  c #A3530F",
"x  c #A7510D",
"c  c #AB530E",
"v  c #A45717",
"b  c #AC5610",
"n  c #AD5912",
"m  c #B35D12",
"M  c #B85E12",
"N  c #8F6B17",
"B  c #936817",
"V  c #8B781C",
"C  c #BA6313",
"Z  c #B76819",
"A  c #BE711B",
"S  c #944E2B",
"D  c #895328",
"F  c #945928",
"G  c #885933",
"H  c #A25334",
"J  c #946A28",
"K  c #A96A25",
"L  c #B56D2A",
"P  c #A8762C",
"I  c #B67525",
"U  c #B87532",
"Y  c #C36D15",
"T  c #C8771B",
"R  c #D07A1C",
"E  c #C57E2A",
"W  c #98654A",
"Q  c #8A6D51",
"!  c #AC6956",
"~  c #947A73",
"^  c #5A8222",
"/  c #709429",
"(  c #7D9928",
")  c #6FA429",
"_  c #72A62A",
"`  c #7DA42B",
"'  c #75AA2D",
"]  c #79AD2F",
"[  c #7CB02F",
"{  c #7BAF30",
"}  c #74A839",
"|  c #7DB131",
" . c #6C9E4F",
".. c #6C9E59",
"X. c #72A546",
"o. c #6FA157",
"O. c #70A250",
"+. c #6A9B69",
"@. c #689877",
"#. c #85821F",
"$. c #858923",
"%. c #968C2A",
"&. c #859728",
"*. c #B7852E",
"=. c #81A52D",
"-. c #89AC32",
";. c #96A932",
":. c #83B234",
">. c #8AB537",
",. c #8DB739",
"<. c #99B63B",
"1. c #95BB3C",
"2. c #9ABD3F",
"3. c #A8A435",
"4. c #B5A237",
"5. c #D2861E",
"6. c #D5851D",
"7. c #E1911E",
"8. c #C6882A",
"9. c #D78A23",
"0. c #D89529",
"q. c #C58736",
"w. c #CA9339",
"e. c #D79933",
"r. c #E08B21",
"t. c #E59927",
"y. c #D9A439",
"u. c #EAA72B",
"i. c #F1AD2C",
"p. c #F1B42F",
"a. c #E7AA34",
"s. c #F1AE31",
"d. c #EBB43A",
"f. c #F2B334",
"g. c #F4BB33",
"h. c #F5BD39",
"j. c #9EC03F",
"k. c #F7C439",
"l. c #F6C23C",
"z. c #F8C53D",
"x. c #B39156",
"c. c #9CBF40",
"v. c #90B54C",
"b. c #89A85F",
"n. c #BCA15E",
"m. c #A99965",
"M. c #8AA763",
"N. c #8DAA63",
"B. c #86A669",
"V. c #94AA66",
"C. c #8EB266",
"Z. c #D9AF48",
"A. c #C0A057",
"S. c #E8B945",
"D. c #E2B64E",
"F. c #C8997F",
"G. c #9FC041",
"H. c #A1C243",
"J. c #EDC548",
"K. c #F5C845",
"L. c #FACD44",
"P. c #FCD146",
"I. c #FBD44A",
"U. c #FEDA4D",
"Y. c #F6D956",
"T. c #FEDE51",
"R. c #FEE354",
"E. c #FDE558",
"W. c #FEEB5B",
"Q. c #FDF05F",
"!. c #EFD765",
"~. c #FDED64",
"^. c #F9E46A",
"/. c #FCF265",
"(. c #FBF36A",
"). c #FAE672",
"_. c #FFF37B",
"`. c #689688",
"'. c #689597",
"]. c #6995A5",
"[. c #7995A9",
"{. c #6D98B8",
"}. c #7398BA",
"|. c #6E98C0",
" X c #729CC4",
".X c #749ECA",
"XX c #79A2CB",
"oX c #7FA7D5",
"OX c #8D9091",
"+X c #98A981",
"@X c #8E9AB1",
"#X c #D0A996",
"$X c #FEF382",
"%X c #90A6C4",
"&X c #85ACD6",
"*X c #8BB3DC",
"=X c #92B7DC",
"-X c #8DB4E1",
";X c #94BBE2",
":X c #97BDE4",
">X c #9CC3E5",
",X c #9DC4E8",
"<X c #A1C6E7",
"1X c #A3C9E7",
"2X c #A6CBE8",
"3X c #AACDEA",
"4X c #ADD1EB",
"5X c #B2D5ED",
"6X c #B6DAEE",
"7X c #B9DCEF",
"8X c #BDDDF1",
"9X c #BDE0EF",
"0X c #BDE2F1",
"qX c #C3E4F3",
"wX c #C9E6F6",
"eX c #C5E9F3",
"rX c #CCEBF6",
"tX c #CEECF8",
"yX c #D0EEF4",
"uX c #D2EEF9",
"iX c #D2EFFA",
"pX c #CEF2F6",
"aX c #D7F5F7",
"sX c #D4F3FA",
"dX c #D7F9FA",
"fX c #D9FAFB",
/* pixels */
"N.] ] | | | | | | ] ] ' ] ] { { { { ' ] ' ] { ] ' ' ' } +.'.{.{.{.].@.X.{ | ] | | ' ' _ ' ' ' ' { | { ' ' ' ' ] ' ' ] { ] ' ' ] ",
"b.' | { { { | | { ] ] ' ' { | | | | ] ] ' ] | { ' ' ..].XX=X<X2X1X;X&X{.@.} ] | | | ] ' ' ' ] | | | { { ] ' ' ' ' _ ' ] ] ' ' ' ",
"b.] | | | { { | { ] { { { { | | | | | ] ' | | ] ' +.{.;X4X0XqXqX0X7X5X>XXX'.X.] | | | ' ' ] ] ] | | | | { ] ] ] ' ' ' ' { ] _ ' ",
"N.{ { { { { ] ] { ] ] | | { | | ] | | ] ' ] { ] ..{.>X7XeXpXsXsXyXrXqX7X2X&X'.} | | { ] { | { ' | | | | { { | | ] ] | ] ] ' ' ' ",
"N.{ { { ] ' ' ' { ] ] { | { | | | | | ' ' ] [ } ].;X7XrXsXfXfXfXdXdXsXeX7X1XoX`.} { { | | | ] ' | | { | ] { | | ] { | ] ' ' ' ] ",
"M.] | { ] ' ' ' ] { ] | | ] { | | ] ] ' ' ' ] +.XX5XyXaXdXfXsXsXsXsXsXuXqX6X>X X..] { { { { ' ' ] | ] { ] ] | { ' ] ] ] ' ' ' { ",
"N.| { { { | { ' ' ] ] { | ] ] ] { ] ' ' ] ' } '.;XqXaXfXfXsXsXsXuXsXsXuXtXqX5X*X'.} ] ] { ] ] ' { { { | ] ] | { ] { | ] ' _ ' | ",
"N.| { { | | | ] ] ' ] { { { ] ] { | ] ' ] ' X.}.2XyXfXfXdXsXwXqXsXsXuXuXuXwX8X>X.Xo.[ | | ] ' ' { { | | ] ] | :.:.:.,.:.>.:.' ] ",
"N.| ' ] { { ] ] { ] ] ] ] { { | | ] ' ' ] ' ..XX6XaXfXfXsXsXqX3XuXsXsXsXuXtXqX3X&X`.{ | ] ] ' ] | { ] ] { >.1.1.1.1.2.1.c.2.:.{ ",
"M.` ' ' | | | { { ] ' ' ] ] ] { { ] ' ] ] ' +.&X9XaXfXfXsXsXuX1X8XsXuXuXuXuXqX5X;X].} ] ' ' ] { | ] ' ' >.G.G.G.c.c.2.2.c.G.2.:.",
"m.P %.] | | { ] ] { ] ' ' ' ' { ] ' ' ' ' ' @.*XqXfXfXfXsXuXsX5X2XuXuXuXuXuXwX7X>X{.X.' ] ] ] { { ] ] ' ,.G.G.H.G.c.c.2.2.c.,.{ ",
"x.L P ] | | ] ' ] | { ' ' _ ] | ] ' ' ' ' ] @.&XqXfXfXfXsXuXuXqX:XqXrXrXrXrXqX7X<X X .' ] ] ] { { { ] ' :.1.c.H.2.2.c.2.1.1.:.' ",
"n.%.&.{ ] { | ] ] { ] ] ' ' ] | ] ' ' ' ' [ +.&X7XaXfXdXsXtXrXwX>X4XqXqXqXqX8X6X1XXX..' { | { { { | ] ] ] { :.1.:.:.1.>.:.:.] ' ",
"A.-.] ] ] ] { { ] { | { ] { | | ' ' ] ' ' [ o.XX5XtXsXsXtXwXqXqX2X:X8X8X8X7X6X4X<X Xo.' ] | | | ] { ] ] ' ' ' ' ' ' | ] ] ] ] ] ",
"A.;.' ] | | ] ] ] ] ] | | | | ] ' ' ' ' ' ' } {.1XqXrXrXqXqX8X7X4X-X3X5X4X3X1X>X;X}.O.] ] | | { ] ' ' ' ' ' ] ' ' ' ' ' ] ] | { ",
"n.;.' ] { | | ] ' ' ' { | | | | { ] ] ' ' ' ' `.*X6XqXqX8X6X5X4X1X-X;X:X=X=X*X*X&X].} ] ' ] ] { ] ' _ _ ' ' ' ' ' ' ' ' { { | { ",
"m.3.] ] ] { { ' _ ' ] ] | { { | | ] ] ' ' ' ' ..XX1X6X7X5X3X,X:X=X@XOX~ Q W W W W Q V &.=.{ ] | | ' _ ' ] ' ' ' ] ' ' ] { ] { { ",
"V.4.-.' ] { ] _ _ ] { { | ' &.$.V V V V $.` ' } '.&X1X1X>X;X%XOXW S j @ + d m Y Y C g k l N $.=.| ] ' ] { ' ' ] | ] { ] ] ] ] ] ",
"N.3.3.] { { { ' ' { | ] &.N h c m C M m z l V ( o.{.*X-X%X~ H j + # O o o # v u.u.u.T + # + j l $.` { ] ] ] ] ] { ' { { ] ' ] ] ",
"N.-.4.-.' { | { ] | ` V z m R r.t.t.t.t.6.Y c l $.+. XOXH b C @ O O O O O O @ 0.g.g.u.k O o X + j B &.] ' { ] ] { { :.| :.:.>.>.",
"M.{ 3.3.' ' | | { =.N c R t.u.s.f.f.f.f.s.t.9.C h V Q h Y 7.t.v $ < < < < < $ Z g.g.g.T # O o o # @ l $.' ] ] { ,.1.2.1.2.c.2.G.",
"M.] ] 3.3.' { | =.N b 9.s.g.h.l.l.l.h.h.h.f.s.t.Y g x R u.i.p.5.& < < < < < 2 D a.k.k.u.D < , O o O @ g #.' ] ,.G.G.H.G.H.G.G.H.",
"b.' _ ` 4.3.{ { V b 9.f.l.L.L.L.L.L.L.z.l.h.h.f.t.Y c 6.i.g.k.a.D 2 < < 1 1 1 & 0.P.L.l.K $ < < , O # c z $.{ 1.H.H.H.G.H.c.H.H.",
"M.' _ _ =.4.3.&.z 5.f.K.L.P.I.S.E E d.L.L.K.l.h.f.t.m C u.k.z.z.K $ 2 2 2 2 3 $ I I.I.I.8.# < < < < $ n Y h &.2.G.H.G.2.2.2.2.c.",
"M._ ) _ ' :.3.*.T u.z.L.I.U.S.H f f L L.P.L.L.l.h.s.9.c 6.g.L.I.8.- 3 3 3 3 3 6 F K.U.U.a.; 2 1 < < 2 k 7.C B <.H.G.1.>.,.>.| :.",
"b._ ) ' { | &.Z e.a.K.I.U.U.w.f ! ! q.P.P.P.L.L.l.g.u.C C i.L.U.e.: 3 3 3 4 4 4 D d.U.U.J.F 2 2 2 2 < ; 0.7.z %.2.2.,.' { { ] | ",
"b._ _ ' { { V m a.S.K.U.U.U.w.F.#XS q.I.P.P.P.L.z.h.f.6.c t.z.I.d.D 4 4 4 4 4 4 ; e.U.U.L.K 3 3 3 2 2 & 9.i.Y B :.:.{ ' ] ] ] | ",
"M._ _ ' { ` l T h.P.U.U.U.U.S.F.#Xf U I.I.P.P.P.L.l.g.t.b 5.k.I.h.F 7 4 4 4 4 4 : 8.U.U.I.I - 3 3 3 3 % 8.g.0.z ( ' ' ' ] { { | ",
"M.' ' ' ] &.z 9.K.I.U.U.U.U.U.S.w.w.S.I.I.K.e.K.L.z.h.u.C C g.P.K.F 6 4 4 4 4 4 : 8.U.U.U.8.: 4 4 3 3 - I z.i.m = = ) ] ] { { { ",
"N.] ' { | $.b u.L.U.R.T.U.U.U.U.U.U.U.I.I.I.q.q.L.L.h.s.Y m p.P.L.K 6 4 4 4 4 4 5 I I.U.U.8.: 4 4 4 4 5 I L.g.Y +   . = / _ ] ' ",
"N.{ ] { | $.n a.I.R.R.R.T.U.U.U.I.I.U.U.U.U.J.L S.L.l.s.T c u.L.P.K 5 4 4 4 4 4 5 I I.U.U.e.: 4 4 4 4 5 K P.l.R d O o   . * = ) ",
"N.{ { { ] V m d.I.R.R.R.R.T.U.U.U.U.U.U.U.U.I.U y.L.l.f.R c u.L.I.K 5 4 4 4 4 4 5 K I.U.U.e.: 4 4 4 4 5 K I.l.5.j $ 3 3 < X   . ",
"M.' { { ] V m d.U.R.E.R.R.R.R.U.U.U.U.U.U.U.I.U a.P.z.f.R c u.P.I.K 5 4 4 4 4 4 5 L I.U.U.e.: 4 4 4 4 5 K I.h.5.j 2 9 0 3 X . * ",
"M.' ] { | $.n d.U.E.W.W.E.R.R.R.T.T.U.U.U.U.S.L J.P.z.s.T n i.I.I.K 6 7 4 4 4 4 5 I I.T.T.e.: 7 7 7 7 5 K I.f.R d $ - X * = / _ ",
"N.] { ] ' $.z a.U.E.W.W.W.E.R.R.T.U.T.U.U.I.E w.I.L.z.s.Y m f.U.Y.K 8 9 9 9 7 9 5 I T.R.R.8.: 9 9 9 9 5 I L.s.Y + . * ^ _ ] ' ' ",
"N.{ { ' ' ( h 0.I.E.W.W.W.W.R.Z.U U Z.U.U.K.Z.I.I.L.l.u.m Y l.T.Y.J q q q q 0 0 : 8.E.E.E.*.: q 0 9 9 : *.K.u.m = ) ' ] { ] ' ' ",
"N.| { ' ' _ l T L.R.W.W.W.W.D.S S f U U.U.U.U.U.I.L.h.t.c 9.L.E.J.F e q e e e q > w.W.W.E.I w q q q 0 : 8.h.6.h &.| | ] ] ' ' ' ",
"N.{ { ] ' _ V m d.S.Y.Q.W.W.w.H ! H w.R.R.U.U.U.I.L.f.R b a.U.W.S.G e e y y y y G Z.~.W.Y.K r e q q q > e.i.C N ] | :.| ] ' ' ] ",
"M.] ] ' ' ' &.I e.S.E./././.Z.#XF.f q.R.R.R.T.U.I.l.t.m A z.R.W.y.> y y y u u y F J.~.~.J.F e y e e e D u.6.z &.| | | ] ' ' ] ] ",
"M.' { { ' -.4.*.Z d.R.(.(.(.^.#X! f U R.R.R.R.U.L.f.R c e.Y.~.~.*.w u u i i i i K Y.~.~.Z.G u u u y r K 0.m V { | | ] ' ' ' ] ' ",
"M.' ] | ;.4.;.&.l T K.W.(.(.(.!.Z.Z.Y.E.R.R.T.I.h.t.b Y K.^._.).K i i i p p p t q.~.~.~.w.t p p i u w Z C l ` | | | ' ' ' { ] ] ",
"M.' ' -.4.;.' ] $.z 9.K.~.(.(.(.(.(.~.W.R.T.I.l.t.C c t.I.).$X!.G i p a a a a G Z._._.).P p s s p e ; x l &.' ] { ] ' ' ] { { ] ",
"M.' =.4.;.' ' ] ' V z 9.J.Y.~.~.(.(.~.E.U.I.l.t.C h h T d.Y.).w.> p p s s s Q K !.$X_.D.J a a u 0 - j l &.| { { ] ' ' { { | | ] ",
"M.] 3.3.' ' ] ] ] ` V z T a.K.Y.Y.E.T.I.K.d.9.m l ( s F Z e.S.K 8 q r p a s Q q.).).^.*.w e 8 3 % j B &.| | | | ] ' ] { { | | { ",
"b.-.4.-.' ' { ] ] ' ' $.l n T 0.a.a.a.t.9.C z N ( `..X@XQ v m ; 2 3 3 8 0 r F D.^.Y.D.D 2 $ % d l V ` | | | | | { ' ] ' ' ] { | ",
"N.3.;.] ' ' ] ] ] ' ] ' ` V l h b n n z l N $.' +. X-X;X*XOXW k j % # $ $ : Z d.d.a.A @ % j l N &.] | | | | { { { ] ] ' ' ' { | ",
"V.4.-.] ' ' ' ' ' ' ] ] { ' ` ( $.#.#.$.( _ ' } ].-X2X3X<X:X*X@X~ W S k j j n C C n g l B V ( ' ] | | | | | { { | { ] ] ' ' ' ' ",
"m.3.| ] ' ' ' ' ' ' ' ] ] ' ] ' _ ' ' ' ' ' ' +.XX2X7X8X6X4X1X>X;X&X@XOXOX~ ~ ~ ~ s $.=.] ] { { ] | { | | | { { { { ] ' _ ' ' ' ",
"n.;.| ] ' ] ' ] ] ' ' ] ' ] ] ' ' ' ' ' ' ' } '.;X7XeXeX9X7X6X5X3X-X:X,X>X:X;X;X-X{.X.] ] | ,.,.:.| | | | | { | | { ] _ _ _ _ ' ",
"A.;.| | ] ' ' { ] ' ] ] ] { { ' ' ' ' ' ' ' X.}.3XeXpXpXeXqX8X8X4X;X4X5X5X4X3X1X:X XO.>.,.1.2.2.1.,.:.:.| | { { | | ' _ _ ) _ _ ",
"A.-.| | ] ' ' | | ] ' ' ' { { ' ' ' ' _ _ ' ..XX6XyXdXsXtXwXqXqX1X<X8X8X8X8X7X4X<X.XM.H.G.H.H.G.c.1.:.| | | ] ] { | ] ' _ _ _ ' ",
"x.*.%.{ ' ' ] | | ' ' ' ' ] { ' ' ' _ _ ' ' +.&X9XaXfXfXsXuXtXwX:X6XwXqXqXqXqX6X<XXXC.H.H.H.H.H.H.1.:.| | | ] ] ] | { ] ' _ _ ' ",
"x.L P ` ' ' { | { ' ' ' ' { { ' ] ] ' ' ' ' @.*XqXfXfXfXsXuXuX8X>XwXtXtXtXtXqX7X<X XC.H.H.H.G.H.H.1.| | { ] { { ] { { ] ' _ _ _ ",
"M.%.%.' ' ] | | { ] ' ' ' ] ] ] { ] ' ' ' _ @.&XqXfXfXfXsXuXuX3X3XuXuXuXuXuXwX6X>X}.v.j.H.H.H.c.,.:.{ { ] ] { { { { ] ] ' ' ' ' ",
"M.' ' _ ' ] { | | { ' ' ' ] ' ] { { ] ' ' ' +.&X7XaXfXfXsXsXtX1XqXsXuXuXuXuXqX5X-X].v.2.c.2.1.1.:.{ | { { ] | | { ] ] ' ' _ ' ' ",
"N.] ' ' ] ] ' { { ] _ ' ' ' ' ] { { ] ' ' ] o.XX5XaXfXfXsXsXqX5XuXsXsXsXuXtXqX3XoX@.] :.:.:.{ | | { { | { { | ] ] ] ] ] ' _ _ ' ",
"N.{ ] ' ] ] ' ] ] ] ' ' ' ] ' ] ] ' ' ' ] ] X.{.1XrXfXfXdXsXtXwXsXuXuXuXuXwX7X>X|. .' ' ' ' ' ' ] ] ] { ] ] ] ' { { { ] ' _ _ _ ",
"N.{ ' ' ' ' ] ] ' ] ] ' ' ] { | { ] ] ] ] ' ] '.*X9XaXfXfXsXsXsXsXsXsXuXrXqX4X&X`.} ' ' ' ] ] ' ] ] ] { ] ' ] ' ' { | ' ' _ _ ' ",
"N.{ ' _ ' ' { ' ' ' ' ] ' ' | | { ' ] ] { { ] o.XX4XrXsXdXfXdXsXsXsXsXtXqX6X:X{.O.' ' ' ' ' ' ] { ] ] | { ' ' ' _ ' ] ' _ _ _ _ ",
"N.{ ' _ ' ' { ' ' ] ] ] ' ' ] { ] ' ' ] | | ] } '.*X6XeXpXdXfXdXdXsXpXeX6X<X.X@.' ' ' ] ' ' ' ' ' ' ] { { ' ' _ _ _ ' ' ' ' ' _ ",
"N.{ ] ' ' ' ' _ ' ] { ] ' ' ' ' ' ' ] ] ] { ] ' X.].=X5XqXrXsXpXpXeX9X6X>XXX@.} ' ' ' ' ' ' ' ' ' ' ] ] | ] ' ' ' ' ' ' ' ' ' _ ",
"N.| { ] ' ' ' _ ' ' ] ] ' ' ' ' ' ' ] ] | ] ] ] ] O.].*X2X6X9X9X9X6X4X=X X@.} ] ' ' ' ' ' ' ' ' ' ' ' { | ] ' ' ' ] ' ' ' ' _ _ ",
"N.| | { { { { ' ' ' ' { ' ' ' ] { ] ] { { { { { ] ] X.`.}.&X=X>X=X*XXX'...' ' ' ] ] ' ' ' ' ' ' ' ' { { { ' ' ] ] ' ' ' _ ' _ _ ",
"+XN.V.N.N.V.V.N.N.N.N.N.N.M.N.N.N.N.N.N.N.N.N.N.N.N.N.B.OX[.}.}.}.[.OXB.M.M.M.N.N.N.N.N.N.N.N.N.N.N.V.N.N.M.N.N.N.M.M.M.M.M.M.M."
};
