/* XPM */
static char *_c9303e9a2b64366ab21cdc47037690aCIRX7JJTN8dlwKVa[] = {
/* columns rows colors chars-per-pixel */
"64 64 225 2 ",
"   c #1D1D17",
".  c #273015",
"X  c #2F2928",
"o  c #2D2638",
"O  c #342939",
"+  c #6A3517",
"@  c #773A1A",
"#  c #53342E",
"$  c #49383C",
"%  c #683D2A",
"&  c #6B3F2C",
"*  c #334616",
"=  c #59681B",
"-  c #56433B",
";  c #794729",
":  c #694A37",
">  c #75533A",
",  c #372F41",
"<  c #3C3445",
"1  c #3F3847",
"2  c #433B46",
"3  c #484449",
"4  c #4E4E4E",
"5  c #594B43",
"6  c #544B48",
"7  c #4F504F",
"8  c #56514D",
"9  c #545351",
"0  c #5A5652",
"q  c #5C5A53",
"w  c #6E5845",
"e  c #615D54",
"r  c #685F54",
"t  c #7B6047",
"y  c #656156",
"u  c #6A6559",
"i  c #6C6759",
"p  c #726B5B",
"a  c #77715F",
"s  c #7B7562",
"d  c #813E16",
"f  c #933C25",
"g  c #9E4F0E",
"h  c #9E530F",
"j  c #8A4316",
"k  c #924A16",
"l  c #985811",
"z  c #A3530F",
"x  c #A7510D",
"c  c #AB530E",
"v  c #A45717",
"b  c #AC5610",
"n  c #AD5912",
"m  c #B35D12",
"M  c #B85E12",
"N  c #8F6B17",
"B  c #936817",
"V  c #8B781C",
"C  c #BA6313",
"Z  c #B76819",
"A  c #BE711B",
"S  c #944E2B",
"D  c #895328",
"F  c #945928",
"G  c #885933",
"H  c #A25334",
"J  c #946A28",
"K  c #A96A25",
"L  c #B56D2A",
"P  c #A8762C",
"I  c #B67525",
"U  c #B87532",
"Y  c #C36D15",
"T  c #C8771B",
"R  c #D07A1C",
"E  c #C57E2A",
"W  c #98654A",
"Q  c #8A6D51",
"!  c #AC6956",
"~  c #947A73",
"^  c #5A8222",
"/  c #709429",
"(  c #7D9928",
")  c #6FA429",
"_  c #72A62A",
"`  c #7DA42B",
"'  c #75AA2D",
"]  c #79AD2F",
"[  c #7CB02F",
"{  c #7BAF30",
"}  c #74A839",
"|  c #7DB131",
" . c #6C9E4F",
".. c #6C9E59",
"X. c #72A546",
"o. c #6FA157",
"O. c #70A250",
"+. c #6A9B69",
"@. c #689877",
"#. c #85821F",
"$. c #858923",
"%. c #968C2A",
"&. c #859728",
"*. c #B7852E",
"=. c #81A52D",
"-. c #89AC32",
";. c #96A932",
":. c #83B234",
">. c #8AB537",
",. c #8DB739",
"<. c #99B63B",
"1. c #95BB3C",
"2. c #9ABD3F",
"3. c #A8A435",
"4. c #B5A237",
"5. c #D2861E",
"6. c #D5851D",
"7. c #E1911E",
"8. c #C6882A",
"9. c #D78A23",
"0. c #D89529",
"q. c #C58736",
"w. c #CA9339",
"e. c #D79933",
"r. c #E08B21",
"t. c #E59927",
"y. c #D9A439",
"u. c #EAA72B",
"i. c #F1AD2C",
"p. c #F1B42F",
"a. c #E7AA34",
"s. c #F1AE31",
"d. c #EBB43A",
"f. c #F2B334",
"g. c #F4BB33",
"h. c #F5BD39",
"j. c #9EC03F",
"k. c #F7C439",
"l. c #F6C23C",
"z. c #F8C53D",
"x. c #B39156",
"c. c #9CBF40",
"v. c #90B54C",
"b. c #89A85F",
"n. c #BCA15E",
"m. c #A99965",
"M. c #8AA763",
"N. c #8DAA63",
"B. c #86A669",
"V. c #94AA66",
"C. c #8EB266",
"Z. c #D9AF48",
"A. c #C0A057",
"S. c #E8B945",
"D. c #E2B64E",
"F. c #C8997F",
"G. c #9FC041",
"H. c #A1C243",
"J. c #EDC548",
"K. c #F5C845",
"L. c #FACD44",
"P. c #FCD146",
"I. c #FBD44A",
"U. c #FEDA4D",
"Y. c #F6D956",
"T. c #FEDE51",
"R. c #FEE354",
"E. c #FDE558",
"W. c #FEEB5B",
"Q. c #FDF05F",
"!. c #EFD765",
"~. c #FDED64",
"^. c #F9E46A",
"/. c #FCF265",
"(. c #FBF36A",
"). c #FAE672",
"_. c #FFF37B",
"`. c #689688",
"'. c #689597",
"]. c #6995A5",
"[. c #7995A9",
"{. c #6D98B8",
"}. c #7398BA",
"|. c #6E98C0",
" X c #729CC4",
".X c #749ECA",
"XX c #79A2CB",
"oX c #7FA7D5",
"OX c #8D9091",
"+X c #98A981",
"@X c #8E9AB1",
"#X c #D0A996",
"$X c #FEF382",
"%X c #90A6C4",
"&X c #85ACD6",
"*X c #8BB3DC",
"=X c #92B7DC",
"-X c #8DB4E1",
";X c #94BBE2",
":X c #97BDE4",
">X c #9CC3E5",
",X c #9DC4E8",
"<X c #A1C6E7",
"1X c #A3C9E7",
"2X c #A6CBE8",
"3X c #AACDEA",
"4X c #ADD1EB",
"5X c #B2D5ED",
"6X c #B6DAEE",
"7X c #B9DCEF",
"8X c #BDDDF1",
"9X c #BDE0EF",
"0X c #BDE2F1",
"qX c #C3E4F3",
"wX c #C9E6F6",
"eX c #C5E9F3",
"rX c #CCEBF6",
"tX c #CEECF8",
"yX c #D0EEF4",
"uX c #D2EFFA",
"iX c #CEF2F6",
"pX c #D7F5F7",
"aX c #D4F3FA",
"sX c #D7F9FA",
"dX c #D9FAFB",
/* pixels */
"M.M.M.M.M.M.M.N.N.N.M.N.N.V.N.N.N.N.N.N.N.N.N.N.N.N.M.M.B.OX[.}.}.}.[.OXB.N.N.N.N.N.N.N.N.N.N.N.N.N.M.N.N.N.N.N.N.V.V.N.N.V.V.+X",
"_ _ ' _ ' ' ' ] ] ' ' { { { ' ' ' ' ' ' ' ' ] ] ' ' ' ..'.XX*X;X>X=X&X}.`.X.' ] { { { { { ] ] { ] ' ' ' { ' ' ' ' { { { { | | N.",
"_ _ ' ' ' ' ] ' ' ' ] | { ' ' ' ' ' ' ' ' ' ' ' ] } @. X=X4X6X9X0X0X6X2X*X].O.] { ] ] | ] ] ' ' ' ' ' ' { { ' ' _ ' ' ' ] { | N.",
"_ ' ' ' ' ' ' ' ' ' ] | ] ] ' ' ' ' ' ' ' ' ' ' } @.XX>X6X0XeXiXiXaXrXeX6X=X].X.' ] { ] ] ] ' ' ' ' ' ' ] { ] ' _ ' ' ' ' ] { N.",
"_ ' ' ' ' ' _ _ _ ' ' { { ] ' ' ' ' ' ' ] ' ' ' @..X<X6XeXiXaXsXdXdXsXiXeX6X*X'.} ] | | ] ' ' ] { ] ' ' ] ] ] ' ' ] ' _ _ ' { N.",
"_ _ _ _ ' ] ' _ ' ' ' { | ] ] { ] ' ' ' ' ' '  .{.:X5XeXtXaXaXaXaXsXdXsXaXrX4XXXo.] { { ] ] ' { | | ' ' { ' ' ' ' { ' ' ' ' { N.",
"' _ _ ' ' | { ' ' ] ' ] { ] ] ] ' ] ] ' ' ' ' `.&X4XqXrXuXaXaXaXaXaXaXdXdXpX9X*X'.] ' ] ] ] ] { | { ] ' ' ] ] ' ] ] ' ' ' ] { N.",
"_ _ _ ' ] { { { ' ] ] ] { ] ] ] ' ' ' ' ' '  .|.>X6XwXuXuXuXuXaXwXrXaXsXdXdXrX1X{.X.] ] ' ' ' ] ] ' ] ' ' ' ] ] ] ' ] ] ' ] ] N.",
"' _ _ ' ] ] ] ] ] | { { | { { | | { :.:.:.] @.oX3XqXtXuXaXaXaXuX5XqXaXaXdXdXpX5XXXo.] ' ' ] { { ] ' ' ' ' _ ] { { ' ] ] ' ' ] N.",
"' ' _ ' ' ] ] { | | ] { { | { :.1.1.2.c.2.v.].*X5XqXuXuXuXuXaXqX1XtXaXaXdXdXpX7X&X+.' ' ' ] { { ] ' ] ' ' ' { | | { ] ' _ ' ' b.",
"' ' ' ' ] ] { { { { ] ] { { :.,.c.H.H.H.j.v.}.>X6XwXuXuXuXuXuX3X3XuXuXaXdXdXpXqX&X@._ ' ' ' ] { ] ] ] ' ' ' ] { | | ] ' ' %.%.M.",
"_ _ _ ' ] { { ] { { ] { | | 1.H.H.G.H.H.H.C. X<X6XqXtXtXtXtXwX>X8XuXuXaXdXdXpXqX*X@.' ' ' ' ] ] ' { { ' ' ' ' { | { ' ' ` P L x.",
"' _ _ ' ] | | ] ] ] | | | :.1.H.H.H.H.H.H.C.XX<X6XqXqXqXqXwX5X:XwXtXuXaXdXdXpX9X&X+.' ' _ _ ' ' ' { ] ' ' ' ' | | ] ' ' { %.*.x.",
"' _ _ _ ' ] | { ] ] | | | :.1.c.G.H.H.G.H.B..X<X4X6X8X8X8X8X>X1XqXqXwXtXaXsXiX6XXX..' _ _ ' ' ' ' { { ' ' ' ] | { ' ' ] | | -.A.",
"_ _ ) _ _ ' | | { { | | :.:.,.1.2.2.1.,.>.O. X:X1X3X4X5X5X4X;X4X8X8XqXeXiXiXeX3X}.X.' ' ' ' ' ' ' { { ] ] ] ' ] { ' ' ] { | ;.A.",
"' _ _ _ _ ] { | | { | | | | | :.,.,.:.] ] X.{.-X;X;X:X>X,X:X-X3X5X5X6X0XeXeX7X;X'.' ' ' ' ' ' _ ' ] ] ' ] ' ' ] ] ' ] ' ] | ;.n.",
"' ' ' _ ' ] { { { { | | | { | ] { | ] ' =.$.s ~ ~ ~ ~ OXOX@X&X;X>X1X4X6X8X7X2XXX+.' ' ' ' ' ' _ ' ] ' ] ] ' ' ' ' ' ' ' { | 3.m.",
"' ' ' ' ] ] { | { { | | | | | ] ' ( V B l g n C C n j j j S W ~ @X*X:X<X3X3X*X].} ' ` ( $.$.#.$.( ` ' { ] ] ' ' ' ' ' ' ] :.4.V.",
"| { ' ' ' ] ] { { { | | | | ] &.N l j % @ A a.d.d.Z : 2 $ # % j S W OX*X;X-X X+.' $.N l z n n b h l V ` ' ] ' ] ] ] ' ] ] ;.3.N.",
"| { ] ' ' ] ' { | | | | | ` V l d % $ 3 D D.Y.^.D.F r 0 6 3 3 2 ; m v Q @X.X`.( N z C 9.t.a.a.a.0.T n l $.' ' ] ] { ' ] -.4.-.b.",
"{ | | { { ] ' ] | | | | &.B j % 3 6 e w *.^.).).q.Q s s p r e 5 F S.e.Z H s ( l m 9.d.K.I.Y.E.E.Y.K.a.T z V ` ] ] ] ' ' 3.3.] b.",
"] | | { { ' ' ] { { | &.l j - 0 u p a G D._.$X!.K Q s s s p p > w.).Y.S.T h h C t.l.I.U.E.~././.~.~.Y.K.9.z V ' ] ' ' ;.4.=.' M.",
"] { { ] ' ' ] { ] ' &.l x ; e p a s p P ^._._.D.G a a a p p i G !.$X).I.t.c C t.l.I.T.R.W.~.(.(.(.(./.~.K.9.z $.] ' ;.4.-.' ' M.",
"] ] { ' ' ' | | | ` l C Z w u p p p t w.~.~.~.q.t p p p p p i K )._.^.K.Y b t.h.I.T.R.R.R.Y.Z.Z.!.(.(./.W.K.T l &.;.4.;.| ] ' M.",
"' ] ' ' ' ] | | { V m 0.K r y u u u G Z.~.~.Y.K i i p i u u w *.~.~.Y.e.c R f.L.U.R.R.R.R.U f ! #X!.(.(.(.E.d.Z *.4.-.' | | ' M.",
"] ] ' ' ] | | | &.z 6.u.D e e e y r F J.~.~.J.F y u u y y y > y.W.R.l.A m t.l.I.U.T.R.R.R.q.f F.#XZ./.(.(.E.S.e.I &.' ' ' ] ] M.",
"] ' ' ] { | | ' N C i.e.> q q q e r K Y.W.~.Z.G y y y y y e G S.W.U.u.b R f.L.I.U.U.T.R.R.w.H ! H w.W.Q.Q.Y.S.d.C V _ ' ' { { N.",
"' ' ' ] ] | | &.h 6.h.8.> 0 0 q q w I E.W.W.w.> q e q e e e F J.E.L.9.c t.h.L.I.U.U.U.T.T.U f S S D.W.W.W.W.R.L.T l ` ' ' { | N.",
"' ' ] { ] ' ) = m u.K.*.: 9 9 0 0 : *.E.E.E.8.: 0 0 q q q q J Y.T.l.Y m u.l.L.I.I.Z.K.U.U.Z.U U Z.R.W.W.W.W.E.I.0.h ( ' ' { { N.",
"' ' ] _ ^ * . + Y i.L.I 5 9 9 9 9 : 8.R.R.T.I 5 9 9 9 9 9 8 K Y.U.f.m Y s.l.L.I.w.E I.U.U.U.U.U.R.R.E.W.W.W.E.U.a.z $.' ] { ] N.",
"_ / = * X - $ d R f.I.K 5 4 7 7 7 : e.T.T.I.I 5 4 4 4 4 7 6 K I.I.i.n T s.z.P.K.L S.U.U.U.U.U.T.U.R.R.E.W.W.R.U.a.n $.| { ] ' M.",
"* . X 3 q 9 2 j 5.h.I.K 5 4 4 4 4 : e.U.U.I.K 5 4 4 4 4 4 5 K I.P.u.c R f.z.P.a.U I.U.U.U.U.U.U.U.U.R.R.E.E.R.U.d.m V ] | { ' M.",
".   X < 3 3 $ j 5.l.I.K 5 4 4 4 4 : e.U.U.I.K 5 4 4 4 4 4 5 K I.L.u.c R f.l.L.y.U I.U.U.U.U.U.U.U.U.T.R.R.R.R.I.d.m V ] { { { N.",
") = * .   o O d R l.I.K 5 4 4 4 4 : e.U.U.I.I 5 4 4 4 4 4 5 K P.L.u.c T s.l.L.S.L J.U.U.U.U.U.U.U.U.U.T.R.R.R.I.a.n $.| { ] { N.",
"' ' _ / = .   + Y g.L.I 5 4 4 4 4 : 8.U.U.I.I - 4 4 4 4 4 6 K L.P.p.m Y s.h.K.L.q.q.I.I.I.U.U.U.U.U.U.U.T.R.U.L.u.b $.| { ' ] N.",
"{ { { ] ] ) ^ = C i.z.I - 4 4 4 4 : 8.U.U.U.8.: 4 4 4 4 4 6 F K.P.g.C C u.h.z.L.K.e.K.I.I.S.w.w.S.U.U.U.U.U.I.K.9.z &.] ' ' ' M.",
"| { { ] ' ' ' ( z 9.g.8.% 3 3 3 4 - I I.U.U.8.: 4 4 4 4 4 4 F h.I.k.5.c t.f.l.L.P.P.P.P.I.U f #XF.S.U.U.U.U.P.h.T l ` { ' _ _ M.",
"| ] ] ] ' { :.-.B Y i.9.& 2 2 3 3 3 K L.U.U.y.; 4 4 4 4 4 4 D d.U.z.t.c 6.f.h.z.L.P.P.P.I.q.S #XF.w.U.U.U.K.S.a.m V { { ' _ _ b.",
"| ] | { ] >.2.2.%.c 9.0.; < 2 2 2 2 F J.U.U.d.D 4 4 4 4 4 4 : e.U.L.i.C C u.g.l.L.L.L.P.P.q.! ! f w.U.U.I.K.a.e.Z &.| { ' ) _ b.",
":.| >.,.>.1.c.G.<.B C 7.k 2 < < 1 2 ; a.U.U.K.F 6 3 3 3 3 3 - 8.I.L.g.6.c 9.s.h.l.L.L.L.L.L f f H S.U.I.L.z.u.T *.3.-.' ' ) _ M.",
"c.2.2.2.2.G.H.G.2.&.h Y n $ < < < < # 8.P.I.I.I $ 2 2 2 2 2 $ K l.z.k.u.C m t.f.h.l.K.L.L.d.q.q.S.I.P.L.K.f.5.z &.3.4.` _ _ ' M.",
"H.H.c.H.G.H.H.H.1.| $.z c # O , < < $ K l.L.P.0.% 1 1 < < < 2 D u.l.g.i.6.c Y t.f.h.h.l.z.L.L.L.L.L.L.l.f.9.b V { { 3.3.` _ ' b.",
"H.G.G.H.G.H.G.G.,.] ' #.g @ O o O , < D u.k.k.a.D 2 < < < < < % 5.p.i.u.R z g Y t.s.f.h.h.h.l.l.l.h.f.s.9.b N =.| { ' 3.3.] ] M.",
"G.2.c.2.1.2.1.,.{ ] ] ' $.l @ # o o O # T g.g.g.Z $ < < < < < $ v t.7.Y v Q V h C 9.t.s.f.f.f.f.s.u.t.R c N =.{ | | ' ' 3.3.{ N.",
">.>.:.:.| :.{ { ] ] { ' ] &.B j + X o O k u.g.g.0.@ O O O O O O @ C b H OX X+.$.l c Y 6.r.t.t.r.r.R m z V ` | ] { | { ' -.4.-.N.",
"] ] ' ] { { ' { ' ' ] ] ' ] ` $.B j + # + T u.i.u.v # o o O # + j H ~ %X-X*X{.o.( V l z n M C m c h N &.] | { ' ' { { { ] 3.3.N.",
"] ] ] ] ] { ] | ] ' ' { ] ] ] | =.$.N l k x C Y Y m d + @ j S W OX%X;X>X1X1X&X'.} ' ` $.V V V V $.&.' | { { ] _ _ ] { ] ] -.4.V.",
"{ { ] { ] ' ' ] ' ' ' ] ' _ ' { | ] ] =.$.V Q W W W W Q ~ OX@X=X:X>X2X5X7X6X1X X..' ' ' ' ] ] | | | { | ] ] ' _ ' { { ] ] ] 3.m.",
"{ | { { ' ' ' ' ' ' ' ' _ _ ' ] { ] | ' ] } ].&X*X*X=X=X:X;X-X1X4X5X6X8XeXeX6X*X`.' ' ' ' ] ] { | | | | { ' ' ' ] | | { ] ' ;.n.",
"{ | ] ] ' ' ' ' ' ] ' ' ' ' ' ] { | | ] ] O.}.;X>X1X3X4X5X3X-X4X7X8XqXqXrXrXeX1X{.} ' ' ' ' ' ' ] | | | | ] ] ] ] ] | | { ' ;.A.",
"] ] ] ] ] | ' ' ' ' ' ' ] ] { ] | | | ] ' o. X<X4X6X6X8X8X8X:X2XqXqXwXtXaXaXtX5XXXo.[ ' ' ] ' ' | | { ] { | { ] { { ] ] { ] -.A.",
"' ] :.:.>.1.:.:.1.:.{ ] ] ] | { { { | { ' ..XX1X5X8XqXqXqXqX5X>XqXrXtXaXsXdXpX7X&X+.[ ' ' ' ' ] | ] ' ' ] ] { ] ] | { ' { &.%.n.",
"' :.1.1.2.c.2.2.H.c.1.:.' ] { { { ] ] ] '  . X<X6XqXrXrXrXrXqX:XqXuXuXaXdXdXdXeX&X@.] ' ' ' ' ] | ] _ ' ' { | ] ' ] | | { P L x.",
"{ ,.c.2.2.c.c.G.H.G.G.,.' ] ] { { ] ] ] ' X.{.>X6XwXuXuXuXuXuX2X5XaXuXaXdXdXdXqX*X@.' ' ' ' ' ] { ' ' ' ' ] { ] ] { | | ] %.P m.",
":.2.G.c.2.2.c.c.G.G.G.>.' ' ] | { ] ' ' ] } ].;X5XqXuXuXuXuXaX8X1XuXaXaXdXdXpX0X&X+.' ] ] ' ] { { ] ] ] ' ' ] { ] | | | ' ' ` M.",
"{ :.2.c.1.2.1.1.1.1.>.{ ] ] { | ] ' ] ] | { `.&X3XqXtXuXuXaXaXuX3XqXaXaXdXdXpX6XXX..' ] ' ' ] | | { { ] ] ] ] { ] ] ] { ] ' | N.",
"] ' :.>.:.,.:.:.:.| ] ] | | { { ' ' ] | | [ o..X>X8XwXuXuXuXaXaXqXwXaXsXdXdXyX2X}.X.' ] ' ] | { ] ] { { { ] ' ] ] | | | { { | N.",
"| ' _ ' ] | { ] { | ] ] | { { { ' ] ] ] ] ] } '.*X5XqXtXuXaXaXuXuXaXaXdXdXpXeX;X'.' ' ] ' ' ] { ] ] ] | { ] ] ' ' { | { { { | N.",
"{ ' ' ' ] ] ] ' { | ] ] { ] | ] ' ' ] ] { { ] .. X>X6XqXuXaXaXaXaXaXdXsXpXyX5XXX+.] ' ' ' ] ] | | { ] | | ] { ] ' ' ' ] { | ] M.",
"] ' ' ' ] | { ] | | { ] | { | | ' ] | | | { { } `.oX1X7XeXaXsXsXdXdXdXaXrX7X;X].} [ ] ' ' | | | | | { | { ] ] { ' ' ' ] { { { N.",
"' ' ' ] ] | ] ] | | { { | | | | ' { | { ] { | | } '.&X2X7XeXrXiXaXaXiXeX7X>X{...] { ] ' ] | | ] | | { | | ] ] { ] ] { { { { { N.",
"' _ ] { ' ' ' ' ] ] ] { | | | | ] ] ] ' ' | | | ] X.'.XX>X5X7X0XeXeX0X4X;X{.+.' ] | | ' ] | | | | | { { { { ] { | { { | | | ] b.",
"' ' ' ] ] ' _ ' ' ' ' ] { { | | | ] ' ' ' ] | | | ] } @.{.&X;X1X2X<X=XXX]...' ' { | ] ' ] ] | | | | { ' ' ] ] { | | { { { | ' b.",
"] ' ' ] { ] ' ' ] ' ' ' ' { | { ' ' ' ' _ ' ' | | ] | { X.@.].{.{.{.'.+.} ' ' ' ] { ] ' ] ' { { { { ] ] ' ] ] | | | | | | ] ] N."
};
