/* XPM */
static char *_d14f0730eda4845982d761c3f6385e2brH6TyAPI51tgLZA[] = {
/* columns rows colors chars-per-pixel */
"64 64 226 2 ",
"   c #1D1D17",
".  c #273015",
"X  c #2F2928",
"o  c #2D2638",
"O  c #342939",
"+  c #6A3517",
"@  c #773A1A",
"#  c #53342E",
"$  c #49383C",
"%  c #683D2A",
"&  c #6B3F2C",
"*  c #334616",
"=  c #59681B",
"-  c #56433B",
";  c #794729",
":  c #694A37",
">  c #75533A",
",  c #372F41",
"<  c #3C3445",
"1  c #3F3847",
"2  c #433B46",
"3  c #484449",
"4  c #4E4E4E",
"5  c #594B43",
"6  c #544B48",
"7  c #4F504F",
"8  c #56514D",
"9  c #545351",
"0  c #5A5652",
"q  c #5C5A53",
"w  c #6E5845",
"e  c #615D54",
"r  c #685F54",
"t  c #7B6047",
"y  c #656156",
"u  c #6A6559",
"i  c #6C6759",
"p  c #726B5B",
"a  c #77715F",
"s  c #7B7562",
"d  c #813E16",
"f  c #933C25",
"g  c #9E4F0E",
"h  c #9E530F",
"j  c #8A4316",
"k  c #924A16",
"l  c #985811",
"z  c #A3530F",
"x  c #A7510D",
"c  c #AB530E",
"v  c #A45717",
"b  c #AC5610",
"n  c #AD5912",
"m  c #B35D12",
"M  c #B85E12",
"N  c #8F6B17",
"B  c #936817",
"V  c #8B781C",
"C  c #BA6313",
"Z  c #B76819",
"A  c #BE711B",
"S  c #944E2B",
"D  c #895328",
"F  c #945928",
"G  c #885933",
"H  c #A25334",
"J  c #946A28",
"K  c #A96A25",
"L  c #B56D2A",
"P  c #A8762C",
"I  c #B67525",
"U  c #B87532",
"Y  c #C36D15",
"T  c #C8771B",
"R  c #D07A1C",
"E  c #C57E2A",
"W  c #98654A",
"Q  c #8A6D51",
"!  c #AC6956",
"~  c #947A73",
"^  c #5A8222",
"/  c #709429",
"(  c #7D9928",
")  c #6FA429",
"_  c #72A62A",
"`  c #7DA42B",
"'  c #75AA2D",
"]  c #79AD2F",
"[  c #7CB02F",
"{  c #7BAF30",
"}  c #74A839",
"|  c #7DB131",
" . c #6C9E4F",
".. c #6C9E59",
"X. c #72A546",
"o. c #6FA157",
"O. c #70A250",
"+. c #6A9B69",
"@. c #689877",
"#. c #85821F",
"$. c #858923",
"%. c #968C2A",
"&. c #859728",
"*. c #B7852E",
"=. c #81A52D",
"-. c #89AC32",
";. c #96A932",
":. c #83B234",
">. c #8AB537",
",. c #8DB739",
"<. c #99B63B",
"1. c #95BB3C",
"2. c #9ABD3F",
"3. c #A8A435",
"4. c #B5A237",
"5. c #D2861E",
"6. c #D5851D",
"7. c #E1911E",
"8. c #C6882A",
"9. c #D78A23",
"0. c #D89529",
"q. c #C58736",
"w. c #CA9339",
"e. c #D79933",
"r. c #E08B21",
"t. c #E59927",
"y. c #D9A439",
"u. c #E9A52A",
"i. c #EDAB2D",
"p. c #F1AD2C",
"a. c #F1B42F",
"s. c #E7AA34",
"d. c #F1AE31",
"f. c #EBB43A",
"g. c #F2B334",
"h. c #F4BB33",
"j. c #F5BD39",
"k. c #9EC03F",
"l. c #F7C439",
"z. c #F6C23C",
"x. c #F8C53D",
"c. c #B39156",
"v. c #9CBF40",
"b. c #90B54C",
"n. c #89A85F",
"m. c #BCA15E",
"M. c #A99965",
"N. c #8AA763",
"B. c #8DAA63",
"V. c #86A669",
"C. c #94AA66",
"Z. c #8EB266",
"A. c #D9AF48",
"S. c #C0A057",
"D. c #E8B945",
"F. c #E2B64E",
"G. c #C8997F",
"H. c #9FC041",
"J. c #A1C243",
"K. c #EDC548",
"L. c #F5C845",
"P. c #FACD44",
"I. c #FCD146",
"U. c #FBD44A",
"Y. c #FEDA4D",
"T. c #F6D956",
"R. c #FEDE51",
"E. c #FEE354",
"W. c #FDE558",
"Q. c #FEEB5B",
"!. c #FDF05F",
"~. c #EFD765",
"^. c #FDED64",
"/. c #F9E46A",
"(. c #FCF265",
"). c #FBF36A",
"_. c #FAE672",
"`. c #FFF37B",
"'. c #689688",
"]. c #689597",
"[. c #6995A5",
"{. c #7995A9",
"}. c #6D98B8",
"|. c #7398BA",
" X c #6E98C0",
".X c #729CC4",
"XX c #749ECA",
"oX c #79A2CB",
"OX c #7FA7D5",
"+X c #8D9091",
"@X c #98A981",
"#X c #8E9AB1",
"$X c #D0A996",
"%X c #FEF382",
"&X c #90A6C4",
"*X c #85ACD6",
"=X c #8BB3DC",
"-X c #92B7DC",
";X c #8DB4E1",
":X c #94BBE2",
">X c #97BDE4",
",X c #9CC3E5",
"<X c #9DC4E8",
"1X c #A1C6E7",
"2X c #A3C9E7",
"3X c #A6CBE8",
"4X c #AACDEA",
"5X c #ADD1EB",
"6X c #B2D5ED",
"7X c #B6DAEE",
"8X c #B9DCEF",
"9X c #BDDDF1",
"0X c #BDE0EF",
"qX c #BDE2F1",
"wX c #C3E4F3",
"eX c #C9E6F6",
"rX c #C5E9F3",
"tX c #CCEBF6",
"yX c #CEECF8",
"uX c #D0EEF4",
"iX c #D2EEFA",
"pX c #CEF2F6",
"aX c #D7F5F7",
"sX c #D4F3FA",
"dX c #D7F9FA",
"fX c #D9FAFB",
/* pixels */
"@XB.B.B.B.B.B.B.B.N.N.c.c.S.S.m.M.C.B.n.N.N.N.N.N.N.B.B.B.B.N.N.B.B.B.N.N.n.n.N.N.n.N.N.B.B.C.M.m.S.S.m.c.M.N.B.B.B.N.B.B.n.n.B.",
"B.| | { { { { { ] ' %.L *.-.;.;.3.4.3.-.] ' ' ' ' ] { | { ] ' ] | { ] ' _ _ _ _ ' ' ] { -.3.4.3.;.;.-.%.L P ` | | | ] { { ] ] ] ",
"C.| { ] ' ' ] ] ] ' %.P %.{ { | | :.;.4.3.=.] ] { ] ] ] ] { ] { { ] ] ' _ _ ) ) _ _ ] 3.4.3.-.] ' ] [ &.P %.' ] { { | { { | | ] ",
"B.{ ] ' _ _ ' ' ' _ ' ` { | ] ] { ] ] -.3.4.-.| { ] ] ] ] ] { { { { { ] ' ' ] _ _ ` 3.3.-.] ] ] ] { { { ] ] ] ] { { { { { | { | ",
"B.{ ] ' _ ' ' ] ] ] ] ' ] ] ] ' ] ' ] ] ' ;.4.;.] ' ] ] ] ] | ] ] | | ] { { { ] ` 3.3.' ] { ] ] { | ] ] | | | { | { ] ] { | { | ",
"C.{ ' ' ' ' ' ] ] ] ] ' ' ' ' ] ' ' ' ' ' ] ;.4.-.] _ _ ( $.$.V V $.$.&.' { | -.4.3.' ] { { { { | | ] { | | | { | | ] ] { { { | ",
"C.{ ' ] ] { ] ] ] { | { ] ] ' ] ' ' ] { ] ] ' ;.4.&.V l h z n m m n b z l V &.3.3.{ { | | { ] { | ] { | ] { | ] | { ' ' ] { | | ",
"B.' _ _ ' ] ] ] { | | | | { { ] ' ' ] ] ] ] ] &.*.I C T 0.s.s.f.f.s.u.9.T m Z *.&.{ | | { ] _ ' ] ] { ] ' ] { ] ] ' ' ] ] | | | ",
"B.' ' ' ] ' ] ] { | { { | | ] ] ' ] ] ] ] ' $.l Z e.f.P.U.Y.Y.Y.U.U.P.L.j.s.e.T h V =.{ ] ' _ _ ' ] ] ] ] ] { { ] ' ] { { { { | ",
"B.' ' ] ] ' ] ] ] { ] ' ' ] ' ' ' ' ' ' ` V z T f.D.D.E.W.W.E.E.E.E.Y.U.I.D.s.i.5.b N =.| { ] ' ' ] { { | { ] ] ] ] { ] ] ] ] ] ",
"B.' ] { ] ] ] ' _ ' ' ' ' ] ] ] ' ] ] ' V z 9.L.E.W.T.Q.Q.Q.Q.W.E.E.E.Y.Y.L.L.x.g.9.b N ` | { ] ' ] | ] { ] ' ] ] ] ] ] ] { ] ] ",
"C.{ ] ] ] ] ' ' ' ' ' ' ' ' ] ] ] ] ] $.z 9.L.Q.).(.!.Q.Q.Q.Q.E.E.E.R.Y.Y.Y.U.P.L.g.9.c V ] { ] { | { ] ] ' ' ] { { | { | { ' ] ",
"B.' ' ' ' ' ' ' ' ' ' ' ' ' ] ' ] { ` l T K.^.).).(.Q.Q.Q.Q.W.E.E.R.Y.Y.Y.Y.Y.U.P.z.i.R z &.| | | | ] ' ' ' ] ] { | | | | { ' ] ",
"N._ ' ' ' ' ] ] ' ] ] { ] { { ] ' ' V n s.T.).).).^.Q.Q.Q.W.E.E.R.Y.Y.Y.Y.Y.Y.Y.I.P.g.t.m N ' { | | { ' _ ' ] { { ] ] { { { { ] ",
"B.] ] ' ] | { ] ' ' ] { { { { ] ] ` l T L.^.).).~.A.w.F.E.E.E.E.Y.Y.Y.Y.D.w.w.D.U.P.j.u.R h &.{ | | | ] ] ' ] { ] ] { | | | | { ",
"B.] ' ' { | | ] ] ] ] ] ' ' ' ' ' ( h 0.T.(.).~.$X$XH S A.E.Y.Y.Y.Y.Y.D.G.G.f H D.P.z.d.r.c $.| | ] | | | { { | ] ] | | | | | { ",
"B.{ ' ' ] { { ] { { { ] ] ' ' ' _ $.b s.T.).).A.! G.! S U R.R.Y.Y.Y.Y.w.$X$X! f E P.z.g.t.m V | { ' ' ] ] ] { | { { | | ] | | { ",
"B.] ] ' ' ] ] ] { { ] ] ' ' ' ' ' #.n s.W.).).A.f f H f U Y.Y.Y.Y.Y.Y.w.f S W f E P.z.g.t.C V ] ] ' ' ' ' ' ] ] | ] ] | | | | { ",
"B.] ] ] ' ] ] ] ] ] ' ' _ ' ' ' ' #.b s.T.^.^.T.U q.w.U A.R.Y.Y.Y.Y.Y.D.U q.q.L f.P.j.g.t.M V ] ] ] ] ' ' ' ] ' ] ] ] | | | ] ' ",
"B.{ ] ] ] ] ] ] ' ] ' ' _ _ ' ' ] $.z t.U.W.Q.E.E.E.E.Y.Y.Y.Y.Y.Y.Y.U.U.U.U.I.P.P.x.j.g.t.m V ' ' ' ' ' ' ' ] ' ' ' ' ' ] ] ] ] ",
"B.{ | ] | { ] ] ] ' ' ' ' _ ' ' ] ( l 9.L.Y.E.E.E.E.E.Y.Y.Y.Y.Y.Y.Y.U.U.U.I.I.I.P.z.j.i.6.z $.' ' ' ' ' ' ] ] { ] ] ' ' ' ' ] ] ",
"B.{ ] { | { ' ] ] ' _ ' ' ' ' ' ' _ N C f.U.R.E.E.E.Y.Y.L.U.Y.Y.Y.Y.U.L.I.I.I.P.L.j.g.t.Y l ` ' ' ] [ [ ] ' ' ] ] ' ' ] ] | ] ] ",
"B.{ ] ] ] ] ] X.o.+.@.@.+...X.' ' ] $.z 9.z.U.R.E.R.Y.Y.A.E D.U.U.K.q.e.I.I.P.P.z.j.i.9.c V ' ' _ } o.+.@.@.+...X.' ] [ { | | ] ",
"B.{ { ] } o.].}.oX*X*X=X*XoX|.].+.} ' N m t.z.U.Y.Y.Y.Y.U.w.L U U L q.L.I.P.P.z.j.g.t.C l ( } ..'.}.oX*X*X=X*XoX|.].+.} ] ] { ] ",
"B.] ] X.].oX=X2X6X8XwXwX0X7X4X:XoX[.+.( l C t.j.P.U.U.U.U.U.K.s.y.D.P.P.P.x.z.j.g.t.Y h $.o.].oX=X2X6X8XwXwXqX7X4X:XoX]...' ' ' ",
"B.] O.[.=X5X0XtXaXaXfXfXaXuXrX8X4X;X.X'.( h C t.g.z.P.P.P.P.I.I.P.P.P.x.z.j.j.d.t.Y g V +.|.=X2X7XwXyXaXaXfXaXaXyXwX6X:X}.+.' ' ",
"B.X.[.-X7XtXaXfXfXfXfXfXfXdXpXrX8X4X;XXXs h c b R t.g.j.z.x.x.x.x.z.j.j.g.g.u.9.m c x Q .X=X2X7XwXtXdXfXfXfXfXfXfXaXyX8X<X}...' ",
"V.'.=X6XrXsXfXfXfXfXfXfXfXdXpXrX9X4X:X#XF T t.Y c m R t.u.d.d.g.g.d.i.u.t.6.C c C 6.R v +X;X2X8XwXtXdXdXfXfXfXfXfXfXaXtX8X:X[.} ",
"+X|.4XwXpXdXfXdXdXdXdXsXsXyXeXqX7X1X=XQ Z f.U.K.e.A b c m Y T R R T Y C b c C 6.u.p.u.Y H &X,X6X9XeXyXsXsXdXdXdXdXdXdXdXrX5XoX+.",
"{.*X7XtXdXfXdXsXsXsXiXiXiXeXwX9X5X>X+Xv e.T._./.T.x.s.9.Y m n c c c m Z 5.t.i.h.l.h.p.7.b ~ :X4X7XqXeXyXiXiXsXsXsXdXdXdXpXqX-X].",
"|.-XqXsXfXdXsXyXwXyXiXiXyXeX9X7X2X=XW m D._.%X`.^.E.Y.P.z.g.i.u.u.u.a.h.l.x.P.P.x.l.a.t.C F &X<X6X9XwXyXiXsXiXeXeXsXdXfXdXwX1X}.",
"|.,XqXpXfXdXsXeX6X2X4X9XeXwX9X6X,X#XS ; F w.~._.^.Q.Q.W.R.Y.U.I.P.P.I.I.I.Y.Y.I.x.s.5.v @ j +X>X4X7XwXeXwX6X2X4XeXiXdXfXdXwX3X}.",
"|.-X0XpXdXdXsXsXiXwX4X>X>X2X5X4X:X~ j 2 8 > G K *.y.D.K.T.T.U.U.U.I.P.L.j.f.e.8.K D % $ O + W -X2X5X3X,X>X3X9XiXsXiXsXdXuXqX2X}.",
"{.=X8XrXdXdXsXiXsXsXiXeX7X,X:X;X*XW % 3 e p i i w > G F J K K L L K K F F D : - $ 2 1 < O # S #X;X;X>X5XwXiXsXsXsXsXdXdXtX8X:X[.",
"+XoX5XqXpXdXsXiXiXiXiXyXeX9X5X>X#XS # 3 r p p i u y e e 0 8 6 5 5 5 6 6 4 4 4 3 2 1 1 < O O j +X:X4X9XeXyXiXiXsXiXiXsXsXwX6X*X@.",
"V.].-X6XrXyXiXiXiXiXiXyXeX9X6X<X+Xj $ 6 p a p i u y y e q 9 9 4 4 4 4 4 4 4 4 3 2 1 1 < O o @ ~ >X6X8XwXyXiXiXsXiXiXiXrX8X,X}.X.",
"N... X<X7XwXyXiXiXiXiXyXeX9X6X,X+Xj $ q s s a p i y y e q 9 4 4 4 4 4 4 4 4 4 3 2 1 1 < O o + Q -X5X9XwXyXiXiXiXiXyXeX8X4XoX@.{ ",
"N._ @.oX1X7XwXeXyXiXiXyXwX9X5X>X~ j : r s s a p i u y e q 9 4 4 4 4 4 4 4 4 4 3 2 1 1 < O # d W -X4X7XwXyXiXiXyXeXwX7X2X*X].} | ",
"N.' } @.XX>X5X9XwXeXeXeXwX7X4X:X~ n Z F Q Q a p u u y e 0 9 4 4 4 4 4 4 4 4 4 3 2 1 2 $ @ v m W =X2X7X9XeXeXeXwX9X6X<XOX].X.] ] ",
"N.] ] } @.}.*X,X4X6X7X7X7X5X2X:X~ C f.F.q.P G t i y y q 0 9 4 4 4 4 4 4 4 4 4 6 $ % D Z 0.u.Y W =X<X5X7X7X7X6X4X<X=X.X'.} ] | | ",
"B.] ] ' '  .'. XOX;X,X1X1X1X>X;X~ C f./._.~.A.q.K F G > : 5 5 5 5 5 5 : : ; D F I 0.s.h.h.p.Y W *X:X1X2X1X,X:X*X.X]...} | | | | ",
"B.] ' ' ' ' '  .@.[.|..XoXXX.X}.s n s.T._.%X`.^.T.K.A.w.8.I I L K I I 8.8.e.f.L.U.P.l.l.h.u.C Q [.|..XoX.X}.[.'.o.} ] { | | | ] ",
"B.' ' ] ' ' ' ' ] b.b.Z.Z.N.O.X.$.g A F./.`.`.^.^.^.^.Q.W.R.U.U.U.U.U.Y.Y.Y.Y.Y.U.P.l.h.u.T x V } O.o... .X.} { [ ] { { { | ] ' ",
"B.' ' ' ] ' ' ' :.2.k.J.J.J.>.] =.l @ D *.F._.^.^.^.Q.Q.W.E.R.Y.Y.Y.Y.Y.Y.Y.Y.Y.I.z.u.T k + k &.] ] ' ' ' ] ] | | ] { | ] ' ' _ ",
"B.] ' ' ' ' ' ' :.v.J.J.J.H.,.] ' B % 3 w J P w.A.K.T.W.W.E.R.Y.Y.Y.Y.Y.U.P.K.s.8.K D # o # l =.] ] ] { ] ] ' ] | ] ] | { ' ' ' ",
"B.' ' ' ' ' ] ' :.2.J.J.J.J.1.:.{ V j $ e a p t G F K I *.8.e.e.e.e.8.8.I K F ; # $ < O o + N ] | | | | ] ] ' ] ] ] { | | ] ' ' ",
"B.' ' ' ' ] ] ' { 1.J.H.J.H.2.,.{ &.l % 6 p s p u r r w : : : : : : : : - 3 2 2 1 1 , o X j $.] ] | | { ] ] ] ] ' ] ' ] { ] ] ' ",
"B.' ' ' ' ] ' ' | 1.v.J.J.H.2.,.{ ' N d 3 u s i u y e q q 9 7 4 4 4 4 4 4 3 2 1 1 < O o + B =.] { { | { { { { ] ] ' ' ' ] ] | ] ",
"B.' ' ] ] { ] ] | :.,.J.J.v.1.:.] ] &.l % 0 p i u e q q 0 9 9 4 4 4 4 4 3 3 2 1 1 , o # j $.| { ] ] ] { { { | | { { ] | | | | { ",
"B.] ' ' ' ] ] ] { { :.1.1.1.,.| | | ] V j - e u y e q q 9 9 9 4 4 4 4 4 3 2 2 1 < O o @ B ` ] ] ' ] { | { ] ] { { { | | | | | | ",
"C.{ ] ] ] ] ] ] { | { | :.:.:.| { | | ` B j ; w r e q 0 9 9 4 4 4 4 4 4 3 2 1 2 $ # @ l &.] ' _ _ ' ] ] ] ] ' ] | { ] { | | { { ",
"B.{ { ] { | { { | { { | | | :.| | | | | &.l x Z K D > > : 5 5 5 5 5 5 - % & ; k n c g $.] ' ] ] _ ' ] ] ] ' ' ] | | { | | | { ] ",
"B.{ | | { { ] ] { { ] { | | | | | | | | | &.l Z 0.u.e.8.8.I L K K K I I 8.9.0.6.Y z #.' ' ] { ] ' ' ' ] :.,.>.{ ] ] ] ] { { ] ' ",
"N.' ] ] ] ] ] ] { ] ] ] | | | | | | | | | | &.l m 6.i.j.L.P.U.U.U.U.P.x.h.p.7.C h $.' ] { ] ' ' ' ' ' { 1.H.H.>.] ] ] { { ] ' ' ",
"B.' ' ' ' ' ] ] | | { { ] ] { { { { { | | { ] ` V z C 6.u.i.h.z.z.z.h.i.0.Y z B &.{ ] ] ] ] ' ' ] ] ' :.v.H.H.1.| | | | | ] ' ' ",
"B.] ' ' _ ' ] ] ] | { { ] ] { | { { { | | { ] { { &.N h n Y R 5.5.R T m z B %.<.2.1.,.{ ] ] ] ] ' ' ' 1.J.J.H.1.:.{ { | | ] ] ] ",
"B.] ] ' _ _ ] { ] { { ] ] { | | { | { { ] ] { | | | ' &.= + d j j d + = ( -.2.H.H.J.H.,.{ { | ] ' ' ' :.2.H.v.1.:.] ' ] ] ' ' ' ",
"N.' ] ] _ ' { { ] ] { { | | | { { { ] ' ' ' ] | | | | | ) . $ 2 $ O   = ' :.2.v.J.J.H.1.{ ] ] ' ' ' ' :.2.v.v.1.:.{ ] { ] ' _ ' ",
"N.' ' ' ' ] | { ] ] ] { { ] ' ] ] ] ] ] ] ' ' ] ] | | | ' * - 9 3 o . ) ' { ,.1.H.J.J.2.:.{ { ' ' ] | 1.v.v.2.2.,.| ] | | ' ' ] ",
"N.' ' ' ' ' ' ] ] ] ] ] ] ' _ _ ' ] ] ] { { ' ' ' ] { ] ] ^ X 0 3   = ] ] ] ] >.2.H.H.1.| { ] ] ' ' ] >.2.2.2.1.:.] ] ] ] ' ] { ",
"N._ ' ' ' _ ' ' ' ' ' ' ' _ _ _ _ ' ' ] { { ] ' ' ] ] ] { _ * 3 < . / ] ] ] { ,.2.J.J.2.:.] ] { { ] ] :.1.2.v.v.>.' ' ' ] { ] ] ",
"N.' ' ' ' _ _ _ _ _ ' _ _ _ ) _ ' ' ' ] | | { { ] ' ' ' ] ] = X X * _ { { ] | >.2.v.H.v.:.' ] ] { ] ] :.1.v.H.2.:._ ' ' ] ] ' ' ",
"N._ _ ' ' _ _ _ _ ' ' _ _ _ _ _ ' ' { { | | { ] ] ] ' ' ' ' / .   = ] { { ] ] | 2.J.H.2.>.] ] { | | ] ] :.,.2.:.' ' ' ' ' _ ' ' ",
"N._ _ _ _ _ ' _ ' ' ' _ ' ' _ ' ' ] | | { ] ] ] ] ] ] ' ] ' _ * . ) ] { | | | :.v.J.J.H.>.] ] { { { ] ' ] { :.{ ] | { ] ] ' ] ] "
};
