/* XPM */
static char *_df057925e9f4773938d43406edd59312oCNUOqyJuVlfMA0[] = {
/* columns rows colors chars-per-pixel */
"64 64 183 2 ",
"   c #2F2F2E",
".  c #312E2F",
"X  c #233E26",
"o  c #2C332C",
"O  c #263A28",
"+  c #283829",
"@  c #313E2C",
"#  c #312D30",
"$  c #761E1E",
"%  c #7F1C1C",
"&  c #592E1D",
"*  c #653F07",
"=  c #6C3D07",
"-  c #673F08",
";  c #6B3E08",
":  c #7C3607",
">  c #723A07",
",  c #68281C",
"<  c #4B2828",
"1  c #542627",
"2  c #5D2424",
"3  c #662222",
"4  c #6A2121",
"5  c #1F5F0C",
"6  c #164F1E",
"7  c #194C1F",
"8  c #0C5D16",
"9  c #0E5918",
"0  c #14531B",
"q  c #105819",
"w  c #245D0B",
"e  c #2B5A0B",
"r  c #34560B",
"t  c #3A530A",
"y  c #305F0D",
"u  c #0D670D",
"i  c #006D0E",
"p  c #09690D",
"a  c #15630C",
"s  c #1B610C",
"d  c #10680D",
"f  c #06700F",
"g  c #056512",
"h  c #086114",
"j  c #036810",
"k  c #106A15",
"l  c #0C7311",
"z  c #137613",
"x  c #1C7515",
"c  c #167914",
"v  c #1C7C15",
"b  c #246E11",
"n  c #266A1E",
"m  c #257614",
"M  c #217F17",
"N  c #237E18",
"B  c #1E4523",
"V  c #1B4920",
"C  c #214125",
"Z  c #454E0A",
"A  c #4C4B09",
"S  c #564709",
"D  c #5C4408",
"F  c #524909",
"G  c #41500A",
"H  c #51530C",
"J  c #634108",
"K  c #7A480D",
"L  c #446110",
"P  c #467517",
"I  c #7E6215",
"U  c #487928",
"Y  c #8C1C17",
"T  c #851A1B",
"R  c #8C1919",
"E  c #9B1615",
"W  c #971816",
"Q  c #BC0E0E",
"!  c #AA180D",
"~  c #B51E03",
"^  c #BB1A03",
"/  c #B5150B",
"(  c #BA100D",
")  c #B40F10",
"_  c #A41413",
"`  c #AA1312",
"'  c #B11011",
"]  c #8D2F06",
"[  c #8F270C",
"{  c #9F2704",
"}  c #942C05",
"|  c #9B2905",
" . c #93240D",
".. c #823406",
"X. c #893106",
"o. c #8E2310",
"O. c #A42504",
"+. c #AB2204",
"@. c #B02004",
"#. c #A13C0C",
"$. c #C50C0C",
"%. c #CA0A0B",
"&. c #DB0607",
"*. c #D60F02",
"=. c #DC0C01",
"-. c #D50709",
";. c #D10909",
":. c #C31603",
">. c #CC1302",
",. c #C11903",
"<. c #D31102",
"1. c #E30603",
"2. c #EC0501",
"3. c #E40A01",
"4. c #E80800",
"5. c #F40200",
"6. c #FC0000",
"7. c #F30B03",
"8. c #E91806",
"9. c #E71C08",
"0. c #D9280B",
"q. c #CD3C10",
"w. c #E12209",
"e. c #B65818",
"r. c #916A1A",
"t. c #A46A1C",
"y. c #B2621A",
"u. c #A47922",
"i. c #C84513",
"p. c #C25217",
"a. c #258118",
"s. c #2B841A",
"d. c #31871B",
"f. c #35891C",
"g. c #3B8C1E",
"h. c #3F8F20",
"j. c #408E1E",
"k. c #46911F",
"l. c #408E22",
"z. c #459221",
"x. c #4B9422",
"c. c #4E9A25",
"v. c #509724",
"b. c #549924",
"n. c #5A9D26",
"m. c #5D9E2A",
"M. c #659B27",
"N. c #759D29",
"B. c #6E9E31",
"V. c #5AA028",
"C. c #61A027",
"Z. c #6BA226",
"A. c #64A229",
"S. c #6CA52A",
"D. c #6FA82D",
"F. c #71A72A",
"G. c #7DA42C",
"H. c #75AA2C",
"J. c #79AD2F",
"K. c #76B02F",
"L. c #7BAF30",
"P. c #7CB031",
"I. c #7EB038",
"U. c #848623",
"Y. c #988323",
"T. c #928E26",
"R. c #8A992A",
"E. c #8C9C2C",
"W. c #82A72E",
"Q. c #82AF32",
"!. c #80B232",
"~. c #82B334",
"^. c #88B637",
"/. c #8BB639",
"(. c #8EB93A",
"). c #90B738",
"_. c #94BB3C",
"`. c #9ABD3E",
"'. c #94BB40",
"]. c #9CBF41",
"[. c #9EC042",
"{. c #A2C245",
"}. c #A6C548",
/* pixels */
"J.P.L.L.J.H.H.H.H.H.J.L.P.J.J.J.H.F.F.F.F.F.F.F.H.H.J.J.H.H.H.H.J.H.H.H.J.L.!.L.J.H.J.J.H.F.F.F.H.L.P.P.L.J.P.P.H.F.H.P.~.~.~.P.",
"J.J.J.H.F.H.H.F.H.J.J.L.L.J.H.H.H.F.F.F.F.F.F.H.H.H.J.H.H.H.H.H.J.J.H.H.J.J.L.J.J.H.H.J.L.J.J.H.J.P.P.P.L.J.J.J.F.F.J.P.P.P.P.P.",
"J.H.H.H.F.H.H.H.J.J.J.P.L.J.H.F.H.F.F.H.F.F.F.F.F.F.F.H.H.H.J.J.J.J.J.J.J.J.L.L.J.H.H.J.L.J.J.H.H.J.L.P.L.L.J.H.F.F.J.L.L.L.L.P.",
"J.H.F.H.H.H.H.H.H.J.J.J.J.H.H.F.H.H.H.F.F.H.H.H.H.F.F.H.H.J.H.S.n.b.x.x.b.A.J.L.J.H.J.J.J.H.H.H.J.J.L.L.J.J.J.J.H.F.J.L.L.J.J.P.",
"H.H.H.H.H.H.J.H.H.J.H.H.H.H.F.F.F.H.H.F.H.H.J.J.H.F.H.J.S.x.s.b y w i i i l M b.J.L.L.H.H.J.H.H.H.J.J.J.J.L.P.J.H.H.J.L.L.J.J.P.",
"H.H.H.J.J.H.J.H.H.H.H.H.J.H.H.H.H.H.H.H.H.H.F.H.H.H.J.b.v d * ^ 3.= i i i i i i f.A.c.j.v.S.H.H.H.H.F.F.H.L.J.J.J.J.J.L.L.L.J.P.",
"F.J.J.J.J.J.J.J.J.H.H.J.J.J.J.H.H.H.H.H.H.H.F.F.H.F.g.f a | 5.6.3.r i i i i i i i l i i i v C.J.H.H.F.F.H.H.H.J.L.J.J.L.P.L.H.J.",
"S.H.J.L.L.J.J.J.J.H.J.J.J.J.J.H.H.J.H.F.H.H.F.F.A.s.i i X.6.6.6.| p i i i i i i i i i i i i v S.J.J.H.H.J.H.J.J.L.L.L.L.P.L.H.H.",
"Z.F.H.J.L.P.J.J.H.H.L.L.J.J.H.H.H.J.J.H.H.H.F.G.I ..= F / &.6.*.r i i i i i i i i i i i i i i g.J.J.H.J.J.J.L.P.P.P.L.L.P.L.H.H.",
"Z.S.H.J.L.J.H.H.H.H.J.J.H.H.H.J.J.J.J.J.J.H.H.r.2.6.2.Y < ` 6.>.J s i i i i i i i i i i i i i c A.H.J.L.J.J.J.L.L.P.L.P.P.P.P.J.",
"Z.S.F.J.P.J.H.H.J.H.F.H.F.F.H.J.J.J.H.b.g.f.f.b J *.2.T , E 2.6.6.>.A i i i i i i i i i i i i i z v g.S.L.J.L.J.H.J.L.P.!.P.P.L.",
"H.F.F.J.P.L.H.H.J.J.J.J.F.F.F.F.H.n.M i i i i i e *.6.2.: | 6.6.6.6.3.D i i i i i i i i w > a i i i i v C.J.J.H.J.J.L.!.~.P.L.J.",
"~.J.J.J.L.L.J.H.!.)._.).J.H.F.F.b.z i i i i i i ; 6.6.*.w u - ~ =.=.,.: p i i i i i i a ~ <.s i i i i i v C.F.H.J.L.L.~.P.P.L.J.",
"(.!.L.J.H.H.H.L.).[.].`.^.!.J.C.x g i i i i i i } 6.2.J i i i p w w u i i g i p e r a D 6.>.a i i i i i i f.J.J.J.J.J.L.L.L.J.H.",
"].^.P.J.H.F.F.L._.[.{.[._._.~.U O o C h i i i i } =.J p g 8 g i g h i i i 6 6 s ^ 5.>.:.-.| i i i i i i i l A.P.P.L.J.J.J.J.J.J.",
"[.^.P.L.H.F.H.L._.].{.{.]._.B.@   X B 0 i i i i G t i 9 O o O C o o B i i 8 C i Z *.6.%.2 [ ; a i i i i i i z.L.R.G.J.H.J.J.J.L.",
"{.(.P.P.J.H.J.!._.`.].[.]._.U o 0 i i i i i i i i i 8 o . o . . o B O h i j 0 i i r | 3.R %.6.| u i i i i i N e.9.Y.J.J.J.P.P.P.",
"[._.P.P.L.J.J.P.).`.[.{._.D.n 6 i i i i i i i i i i B . B B . o 8 i V g i i i i i i s *.>.| <.*.t i i i i i e 3.6.e.J.L.L.P.L.L.",
"/.^.L.L.L.L.J.J.P.^.)./.l.l i j i i i i i i i i i g o X g 7 # X i i 8 i i i i i i i s <.,.a s e u i i i i i s *.6.i.J.L.L.L.J.P.",
"P.L.J.L.L.J.J.J.J.L.J.f.i i i i i i i i i i i i i 8 O 8 i g 7 8 i i i i i i i i i i i ; ..i i i i i i i i i a <.6.i.W.P.P.P.L.J.",
"P.L.J.P.L.J.J.J.R.T.x.i i i i i i i i i i i i i i h 0 i i i i i i i i i i i i i i i i p u i i i i i i i i i w =.6.7.0.e.E.P.!.L.",
"P.L.J.L.P.J.J.G.q.0.b i i i i i i i i i i i i i i i j i i i i i i i i i i i i i i i i i i i i i i i i i i i r :.=.6.6.6.9.u.~.P.",
"L.J.J.J.L.J.K.Y.7.~ u i i i i i i i i p t s i i i i i i i i i i i i i i i i i i i i i i i i i g j i i i i i p a w > 3.6.w.u.P.P.",
"J.J.J.J.J.W.E.y.6.> i i i i i i i i e O.3.Z i i i i i i i i i i i i i i i i a s i i i i i i 0 O X h i i i i i i i i H t.E.P.P.P.",
"J.J.J.J.u.0.8.7.5.Z i i i i i i i e :.6.5.Z i i i i i i i i i i i i i i i w +.S i i i i i h o o o B i i i i i i i i f c.P.P.P.P.",
"J.J.J.J.e.^ { O.O.w i i 5 > w i p O.6.6.2.r i i i i i i i i i i a r p i s @.6.F i i i i i 8 O 8 q C j i i i i i i i i a.J.P.L.P.",
"J.J.H.x.x p i i p i i i r 2.<.D r 3.6.6.>.a i i i i i i i i i i r *.O.e ..6.5.A i i i i i i 9 i i 8 j i i i i i i i i v H.P.P.P.",
"H.H.x.f i i i i i i i i w *.6.4.+.5.6.6.: i i i i i i i i i i i s *.6.*.3.6.2.G i i i i i i i i i i i i i i i i i i i c H.P.P.P.",
"H.C.z i i i i i i i i i p | 6.2.&.$.6.^ s i i i i i i i i i i i p +.6.5.&.5.<.s i i i i i i i i i i i i i i i i i i i M L.P.P.P.",
"H.f.i i i i i i i i i i i w ^ ;.2 4 *.A p i i i i i i i i i i i i F 2.Q 4 &...i i i i i i i i i i i i i i i u w p i i a.J.P.L.P.",
"S.c i i i i i i i i i i i i a } $ 4 ( *.+.Z p i i i i i i i i i i i X.%.< W = u i i i i i i i i i i i i i t +.,.s i i i z.P.L.L.",
"n.f i i i i i i i i i i i i w :.Q 1.5.6.6.2.> p i i i i i i i i i p { 1.$.&.2.~ r i i i i i i i i i i i t *.6.^ u i i i c D.L.L.",
"z.i i i i i i i i i i i i i X.6.6.~ O.6.6.6.2.F i i i i i i i i i a >.6.<.^ 2.2.+.s i i i i i i i a w s [ %.2.@.G s i i i n.J.P.",
"g.i i i i i i i i i i i i u ,.6.6.: a | 2.6.6.,.a i i i i i i i i a <.5.J u r t s p i i i i i i F >.3.:.2 1 $.6.5.>.J i i x.J.J.",
"f.i i i i i i i i i i i i s <.6.3.r i p Z X.~ ~ r i i i i i i i i p O...p i i i i i i i i i i i t >.6.$.< Q 6.6.5.~ Z i i x.H.J.",
"z.i i i i i i i i i i i i a :.5.= i i i i i p u p i i i i i i i i i w p i i i i i i i i i i i i i s X._ Q ^ O.X.Z u i i i v.H.J.",
"C.l i i i i i i i i i i i i } : p i i i i i i i i i i i i i i i i i i i i i i i i i i i i i i i i i : 6.^ 5 i i i i i i i a.S.J.",
"L.s.i i i i t s i i i i i i a p i i i i i i i i i i i i i i i i i i i i i i i i i i i i i i i i i i : ~ e i i i i i i i i i f.J.",
"P.M.z i u : =.F i i i i i i h 8 g i i i i i i i i i i i i i i i i i i i i i i 0 V h i i i i i i i i 5 a i i i i i i i i i i l A.",
"Q.p.K p X.5.6.- i i i i g B o o o 7 j i i i i i i i i i i i i i i i i i i i i h o O h i i i i 8 B X 6 j i i i i i i i i i i i z.",
"E.9.3...3.6.6.J i i i i V . o V 0 9 g i i i i i i i i i i i i i i i i i i i i i V . V g 0 V 0 X o o . 6 i i i i i i i i i i i d.",
"U.3.6.5.6.6.5.Z i i i i O . V i i i i i i i i i i i i i i i i i i i i i i i i i 0 . O B o . o 0 g 0 o X i i i i i i i i i i i a.",
"P <.6.5.2.6.>.s i i i i C . V i i i i i i i i i i i i i p w w i i i i i i i i i 0 . X h h C . 0 i i 7 X i i i i i i i i i i i f.",
"p X.5.E $ &.D i i i i i B . o 0 i i i i i i i i i i i t O.=.: i i i i i i i i i B   0 i i 0 . 0 i i q 0 i i i i i i i i i i f n.",
"i s ,.` < o.e i i i i 8 o . . X j i i p p i i i i i S =.6.5.F i i i i i i i i h O 7 i i i V o g i i g j i i i i i i i i i i a.H.",
"i 5 <.' T 1.>.t i i i V . X 7 8 i 5 > O.O.X.Z u i e =.6.6.>.a i i i i i i i i 8 9 i i i j V 8 i i i i i i p r J t i i i i i d.F.",
"i D 6.&.&.6.6.:.s i i V # 7 i i i r *.6.6.6.5.O.w : &.5.2.D i i i i i i i i i i i i i i i g i i i i i i p } 2.5.J i i i i i i s.",
"i : 6.6.+.<.6.6.= i i 0   X i i i i A =.6.6.6.5. ., T 5.] a i i i i i i i i i i i i i i i i i i i s t w Z =.5.*.e i i i i i i i ",
"v ; 6.5.F t ~ 5.+.p i i B o 0 i i i i Z >.6.6.5.W . 2 %.=.^ ..w i i i i i i i i i i i i i i i p > <.2.! & 2 % ( ^ = a i i i i i ",
"V.L 4.<.s i u G F p i i i 0 C 9 i i i i 5 J | 2.%.E ` ;.6.6.6.<.D p i i i i i i i i i i i i i i F <.6.&.1 3 R $.6.6.+.w i i i i ",
"L.M.#.= i i i i i i i i i i j h i i i i i i J 5.5.<.> *.6.6.6.6.2.D i i i i i i i i i i i i i i i w ..&.) ^ ..O.O.} > e i i i i ",
"L.P.N.m i i i i i i i i i i i i i i i i i u ^ 6.6.O.p e : +.~ O.; w i i g g i i i i i i i i i i i p ] 5.6.X.i p p i i i i i i i ",
"P.L.J.v i i i i i i i i i i i i i i i i i w =.6.3.Z i i i p p i i i 8 C o o 7 i i i i i i i i i i e 3.6.2.Z i i i i i i i i i i ",
"P.L.J.v i i i i i i i i i i i i i i i i i r 2.=.D i i i i i i i i 0 o . o X + 8 i i i i i i i i i S 6.6.X.p i i i i i i i i i l ",
"P.L.J.s.i i i i i i i i i i i i i i i i i w ] r i i i i i i i i 9 o O V 8 i 9 8 i i i i i i i i i J 2.X.a i i i i i i i i i l x.",
"P.P.J.x.i i i i i i i i i i i i i i i i i i p i i i i i i i i i 9 8 g i i i i i i i i i i i i i i e Z p i i i i i i i i i c b.H.",
"J.J.H.S.v i i i i i i i i i i i i i i i i i i i i i i i i i i i i i i i i i i i i i i i i i i i i i i i i i i i i i i i a.S.H.J.",
"F.F.F.F.b.l i i i i i i i i i i i i i i i i i i i i i i i i i i i i i i i i i i i i 9 i i i i i i i i i i i i i i i i i g.H.H.J.",
"F.F.F.H.^.A.z i i i i i i i i i i i i i i i i i i i i i i i i i i i i i i i i i i j X 0 i i i i i i i i i i i i i i i i x.H.J.J.",
"H.H.H./.[.{.I.v.f.s.i i i i i i i i i i i i i i i i i i i i i i i i i i i i i i i i B o V h i i i i i i i i i i i i i v S.L.P.L.",
"J.J.^.].{.}.}.[.!.H.f.i i i i i i i i i i l l i i i i i i i i i i z s.v z l c g.f.i 8 o . o X B 6 j i i i i i i i i a.A.J.P.P.P.",
"P.P._.].].}.}._.!.P.J.z.l i i i i i i i i k.A.f.l i i i i i i i l b.H.H.S.A.D.J.H.z.l 8 B O X 0 k i i i i i i l v x.S.J.H.J.P.P.",
"P.!._.{.[.{.{._.!.J.J.J.m.s.l i i i i i s.H.L.J.S.x.N l i i i z x.F.F.H.H.J.J.L.J.J.A.g.N x N z.C.z.a.M a.d.k.n.H.J.J.H.H.H.J.P.",
"L.~.].{.}.}.[.]./.L.H.J.P.J.C.h.a.v v g.D.P.J.J.!._.'.L.m.z.x.A.F.F.F.H.H.J.P.P.J.P.P.L.H.H.H.L.P.P.P.L.L.J.J.!.L.J.J.H.F.F.H.L."
};
